<mxfile host="app.diagrams.net" modified="2023-11-15T09:12:18.875Z" agent="Mozilla/5.0 (Windows NT 10.0; Win64; x64) AppleWebKit/537.36 (KHTML, like Gecko) Chrome/119.0.0.0 Safari/537.36" etag="tlXjrbiVvxneRss6hZTh" version="22.1.1" type="device">
  <diagram name="페이지-1" id="hdjbhopYSdk3RlSoOf6J">
    <mxGraphModel dx="2390" dy="2472" grid="1" gridSize="10" guides="1" tooltips="1" connect="1" arrows="1" fold="1" page="1" pageScale="1" pageWidth="827" pageHeight="1169" math="0" shadow="0">
      <root>
        <mxCell id="0" />
        <mxCell id="1" parent="0" />
        <mxCell id="jk9RJbKhzx2J6C2vbVzu-29" value="" style="shape=hexagon;perimeter=hexagonPerimeter2;whiteSpace=wrap;html=1;fixedSize=1;fillColor=#E0E0E0;strokeColor=#23445d;rotation=90;" parent="1" vertex="1">
          <mxGeometry x="685" y="15" width="80" height="60" as="geometry" />
        </mxCell>
        <mxCell id="jk9RJbKhzx2J6C2vbVzu-30" value="" style="shape=hexagon;perimeter=hexagonPerimeter2;whiteSpace=wrap;html=1;fixedSize=1;fillColor=#E0E0E0;strokeColor=#23445d;rotation=90;" parent="1" vertex="1">
          <mxGeometry x="625" y="15" width="80" height="60" as="geometry" />
        </mxCell>
        <mxCell id="jk9RJbKhzx2J6C2vbVzu-31" value="" style="shape=hexagon;perimeter=hexagonPerimeter2;whiteSpace=wrap;html=1;fixedSize=1;fillColor=#E0E0E0;strokeColor=#23445d;rotation=90;" parent="1" vertex="1">
          <mxGeometry x="565" y="15" width="80" height="60" as="geometry" />
        </mxCell>
        <mxCell id="jk9RJbKhzx2J6C2vbVzu-32" value="" style="shape=hexagon;perimeter=hexagonPerimeter2;whiteSpace=wrap;html=1;fixedSize=1;fillColor=#FFFFFF;strokeColor=#23445d;rotation=90;" parent="1" vertex="1">
          <mxGeometry x="505" y="15" width="80" height="60" as="geometry" />
        </mxCell>
        <mxCell id="jk9RJbKhzx2J6C2vbVzu-33" value="" style="shape=hexagon;perimeter=hexagonPerimeter2;whiteSpace=wrap;html=1;fixedSize=1;fillColor=#FFFFFF;strokeColor=#23445d;rotation=90;" parent="1" vertex="1">
          <mxGeometry x="445" y="15" width="80" height="60" as="geometry" />
        </mxCell>
        <mxCell id="jk9RJbKhzx2J6C2vbVzu-34" value="" style="shape=hexagon;perimeter=hexagonPerimeter2;whiteSpace=wrap;html=1;fixedSize=1;fillColor=#FFFFFF;strokeColor=#23445d;rotation=90;" parent="1" vertex="1">
          <mxGeometry x="385" y="15" width="80" height="60" as="geometry" />
        </mxCell>
        <mxCell id="jk9RJbKhzx2J6C2vbVzu-35" value="" style="shape=hexagon;perimeter=hexagonPerimeter2;whiteSpace=wrap;html=1;fixedSize=1;fillColor=#FFFFFF;strokeColor=#23445d;rotation=90;" parent="1" vertex="1">
          <mxGeometry x="325" y="15" width="80" height="60" as="geometry" />
        </mxCell>
        <mxCell id="jk9RJbKhzx2J6C2vbVzu-36" value="" style="shape=hexagon;perimeter=hexagonPerimeter2;whiteSpace=wrap;html=1;fixedSize=1;fillColor=#FFFFFF;strokeColor=#23445d;rotation=90;" parent="1" vertex="1">
          <mxGeometry x="265" y="15" width="80" height="60" as="geometry" />
        </mxCell>
        <mxCell id="jk9RJbKhzx2J6C2vbVzu-37" value="" style="shape=hexagon;perimeter=hexagonPerimeter2;whiteSpace=wrap;html=1;fixedSize=1;fillColor=#FFFFFF;strokeColor=#23445d;rotation=90;" parent="1" vertex="1">
          <mxGeometry x="205" y="15" width="80" height="60" as="geometry" />
        </mxCell>
        <mxCell id="jk9RJbKhzx2J6C2vbVzu-38" value="" style="shape=hexagon;perimeter=hexagonPerimeter2;whiteSpace=wrap;html=1;fixedSize=1;fillColor=#CCCCCC;strokeColor=#23445d;rotation=90;" parent="1" vertex="1">
          <mxGeometry x="145" y="15" width="80" height="60" as="geometry" />
        </mxCell>
        <mxCell id="jk9RJbKhzx2J6C2vbVzu-39" value="" style="shape=hexagon;perimeter=hexagonPerimeter2;whiteSpace=wrap;html=1;fixedSize=1;fillColor=#CCCCCC;strokeColor=#23445d;rotation=90;" parent="1" vertex="1">
          <mxGeometry x="85" y="15" width="80" height="60" as="geometry" />
        </mxCell>
        <mxCell id="jk9RJbKhzx2J6C2vbVzu-40" value="" style="shape=hexagon;perimeter=hexagonPerimeter2;whiteSpace=wrap;html=1;fixedSize=1;fillColor=#CCCCCC;strokeColor=#23445d;rotation=90;" parent="1" vertex="1">
          <mxGeometry x="25" y="15" width="80" height="60" as="geometry" />
        </mxCell>
        <mxCell id="jk9RJbKhzx2J6C2vbVzu-41" value="" style="shape=hexagon;perimeter=hexagonPerimeter2;whiteSpace=wrap;html=1;fixedSize=1;fillColor=#E0E0E0;strokeColor=#23445d;rotation=90;" parent="1" vertex="1">
          <mxGeometry x="655" y="75" width="80" height="60" as="geometry" />
        </mxCell>
        <mxCell id="jk9RJbKhzx2J6C2vbVzu-42" value="" style="shape=hexagon;perimeter=hexagonPerimeter2;whiteSpace=wrap;html=1;fixedSize=1;fillColor=#E0E0E0;strokeColor=#23445d;rotation=90;" parent="1" vertex="1">
          <mxGeometry x="595" y="75" width="80" height="60" as="geometry" />
        </mxCell>
        <mxCell id="jk9RJbKhzx2J6C2vbVzu-43" value="" style="shape=hexagon;perimeter=hexagonPerimeter2;whiteSpace=wrap;html=1;fixedSize=1;fillColor=#E0E0E0;strokeColor=#23445d;rotation=90;" parent="1" vertex="1">
          <mxGeometry x="535" y="75" width="80" height="60" as="geometry" />
        </mxCell>
        <mxCell id="jk9RJbKhzx2J6C2vbVzu-44" value="" style="shape=hexagon;perimeter=hexagonPerimeter2;whiteSpace=wrap;html=1;fixedSize=1;fillColor=#FFFFFF;strokeColor=#23445d;rotation=90;" parent="1" vertex="1">
          <mxGeometry x="475" y="75" width="80" height="60" as="geometry" />
        </mxCell>
        <mxCell id="jk9RJbKhzx2J6C2vbVzu-45" value="" style="shape=hexagon;perimeter=hexagonPerimeter2;whiteSpace=wrap;html=1;fixedSize=1;fillColor=#FFFFFF;strokeColor=#23445d;rotation=90;" parent="1" vertex="1">
          <mxGeometry x="415" y="75" width="80" height="60" as="geometry" />
        </mxCell>
        <mxCell id="jk9RJbKhzx2J6C2vbVzu-46" value="" style="shape=hexagon;perimeter=hexagonPerimeter2;whiteSpace=wrap;html=1;fixedSize=1;fillColor=#FFFFFF;strokeColor=#23445d;rotation=90;" parent="1" vertex="1">
          <mxGeometry x="355" y="75" width="80" height="60" as="geometry" />
        </mxCell>
        <mxCell id="jk9RJbKhzx2J6C2vbVzu-47" value="" style="shape=hexagon;perimeter=hexagonPerimeter2;whiteSpace=wrap;html=1;fixedSize=1;fillColor=#FFFFFF;strokeColor=#23445d;rotation=90;" parent="1" vertex="1">
          <mxGeometry x="295" y="75" width="80" height="60" as="geometry" />
        </mxCell>
        <mxCell id="jk9RJbKhzx2J6C2vbVzu-48" value="" style="shape=hexagon;perimeter=hexagonPerimeter2;whiteSpace=wrap;html=1;fixedSize=1;fillColor=#FFFFFF;strokeColor=#23445d;rotation=90;" parent="1" vertex="1">
          <mxGeometry x="235" y="75" width="80" height="60" as="geometry" />
        </mxCell>
        <mxCell id="jk9RJbKhzx2J6C2vbVzu-49" value="" style="shape=hexagon;perimeter=hexagonPerimeter2;whiteSpace=wrap;html=1;fixedSize=1;fillColor=#FFFFFF;strokeColor=#23445d;rotation=90;" parent="1" vertex="1">
          <mxGeometry x="175" y="75" width="80" height="60" as="geometry" />
        </mxCell>
        <mxCell id="jk9RJbKhzx2J6C2vbVzu-50" value="" style="shape=hexagon;perimeter=hexagonPerimeter2;whiteSpace=wrap;html=1;fixedSize=1;fillColor=#CCCCCC;strokeColor=#23445d;rotation=90;" parent="1" vertex="1">
          <mxGeometry x="115" y="75" width="80" height="60" as="geometry" />
        </mxCell>
        <mxCell id="jk9RJbKhzx2J6C2vbVzu-51" value="" style="shape=hexagon;perimeter=hexagonPerimeter2;whiteSpace=wrap;html=1;fixedSize=1;fillColor=#CCCCCC;strokeColor=#23445d;rotation=90;" parent="1" vertex="1">
          <mxGeometry x="55" y="75" width="80" height="60" as="geometry" />
        </mxCell>
        <mxCell id="jk9RJbKhzx2J6C2vbVzu-52" value="" style="shape=hexagon;perimeter=hexagonPerimeter2;whiteSpace=wrap;html=1;fixedSize=1;fillColor=#CCCCCC;strokeColor=#23445d;rotation=90;" parent="1" vertex="1">
          <mxGeometry x="-5" y="75" width="80" height="60" as="geometry" />
        </mxCell>
        <mxCell id="jk9RJbKhzx2J6C2vbVzu-77" value="" style="shape=hexagon;perimeter=hexagonPerimeter2;whiteSpace=wrap;html=1;fixedSize=1;fillColor=#E0E0E0;strokeColor=#23445d;rotation=90;" parent="1" vertex="1">
          <mxGeometry x="685" y="135" width="80" height="60" as="geometry" />
        </mxCell>
        <mxCell id="jk9RJbKhzx2J6C2vbVzu-78" value="" style="shape=hexagon;perimeter=hexagonPerimeter2;whiteSpace=wrap;html=1;fixedSize=1;fillColor=#E0E0E0;strokeColor=#23445d;rotation=90;" parent="1" vertex="1">
          <mxGeometry x="625" y="135" width="80" height="60" as="geometry" />
        </mxCell>
        <mxCell id="jk9RJbKhzx2J6C2vbVzu-79" value="" style="shape=hexagon;perimeter=hexagonPerimeter2;whiteSpace=wrap;html=1;fixedSize=1;fillColor=#E0E0E0;strokeColor=#23445d;rotation=90;" parent="1" vertex="1">
          <mxGeometry x="565" y="135" width="80" height="60" as="geometry" />
        </mxCell>
        <mxCell id="jk9RJbKhzx2J6C2vbVzu-80" value="" style="shape=hexagon;perimeter=hexagonPerimeter2;whiteSpace=wrap;html=1;fixedSize=1;fillColor=#FFFFFF;strokeColor=#23445d;rotation=90;" parent="1" vertex="1">
          <mxGeometry x="505" y="135" width="80" height="60" as="geometry" />
        </mxCell>
        <mxCell id="jk9RJbKhzx2J6C2vbVzu-81" value="" style="shape=hexagon;perimeter=hexagonPerimeter2;whiteSpace=wrap;html=1;fixedSize=1;fillColor=#FFFFFF;strokeColor=#23445d;rotation=90;" parent="1" vertex="1">
          <mxGeometry x="445" y="135" width="80" height="60" as="geometry" />
        </mxCell>
        <mxCell id="jk9RJbKhzx2J6C2vbVzu-82" value="" style="shape=hexagon;perimeter=hexagonPerimeter2;whiteSpace=wrap;html=1;fixedSize=1;fillColor=#FFFFFF;strokeColor=#23445d;rotation=90;" parent="1" vertex="1">
          <mxGeometry x="385" y="135" width="80" height="60" as="geometry" />
        </mxCell>
        <mxCell id="jk9RJbKhzx2J6C2vbVzu-83" value="" style="shape=hexagon;perimeter=hexagonPerimeter2;whiteSpace=wrap;html=1;fixedSize=1;fillColor=#FFFFFF;strokeColor=#23445d;rotation=90;" parent="1" vertex="1">
          <mxGeometry x="325" y="135" width="80" height="60" as="geometry" />
        </mxCell>
        <mxCell id="jk9RJbKhzx2J6C2vbVzu-84" value="" style="shape=hexagon;perimeter=hexagonPerimeter2;whiteSpace=wrap;html=1;fixedSize=1;fillColor=#FFFFFF;strokeColor=#23445d;rotation=90;" parent="1" vertex="1">
          <mxGeometry x="265" y="135" width="80" height="60" as="geometry" />
        </mxCell>
        <mxCell id="jk9RJbKhzx2J6C2vbVzu-85" value="" style="shape=hexagon;perimeter=hexagonPerimeter2;whiteSpace=wrap;html=1;fixedSize=1;fillColor=#FFFFFF;strokeColor=#23445d;rotation=90;" parent="1" vertex="1">
          <mxGeometry x="205" y="135" width="80" height="60" as="geometry" />
        </mxCell>
        <mxCell id="jk9RJbKhzx2J6C2vbVzu-86" value="" style="shape=hexagon;perimeter=hexagonPerimeter2;whiteSpace=wrap;html=1;fixedSize=1;fillColor=#CCCCCC;strokeColor=#23445d;rotation=90;" parent="1" vertex="1">
          <mxGeometry x="145" y="135" width="80" height="60" as="geometry" />
        </mxCell>
        <mxCell id="jk9RJbKhzx2J6C2vbVzu-87" value="" style="shape=hexagon;perimeter=hexagonPerimeter2;whiteSpace=wrap;html=1;fixedSize=1;fillColor=#CCCCCC;strokeColor=#23445d;rotation=90;" parent="1" vertex="1">
          <mxGeometry x="85" y="135" width="80" height="60" as="geometry" />
        </mxCell>
        <mxCell id="jk9RJbKhzx2J6C2vbVzu-88" value="" style="shape=hexagon;perimeter=hexagonPerimeter2;whiteSpace=wrap;html=1;fixedSize=1;fillColor=#CCCCCC;strokeColor=#23445d;rotation=90;" parent="1" vertex="1">
          <mxGeometry x="25" y="135" width="80" height="60" as="geometry" />
        </mxCell>
        <mxCell id="jk9RJbKhzx2J6C2vbVzu-89" value="" style="shape=hexagon;perimeter=hexagonPerimeter2;whiteSpace=wrap;html=1;fixedSize=1;fillColor=#E0E0E0;rotation=90;" parent="1" vertex="1">
          <mxGeometry x="655" y="195" width="80" height="60" as="geometry" />
        </mxCell>
        <mxCell id="jk9RJbKhzx2J6C2vbVzu-90" value="" style="shape=hexagon;perimeter=hexagonPerimeter2;whiteSpace=wrap;html=1;fixedSize=1;fillColor=#E0E0E0;rotation=90;" parent="1" vertex="1">
          <mxGeometry x="595" y="195" width="80" height="60" as="geometry" />
        </mxCell>
        <mxCell id="jk9RJbKhzx2J6C2vbVzu-91" value="" style="shape=hexagon;perimeter=hexagonPerimeter2;whiteSpace=wrap;html=1;fixedSize=1;fillColor=#E0E0E0;rotation=90;" parent="1" vertex="1">
          <mxGeometry x="535" y="195" width="80" height="60" as="geometry" />
        </mxCell>
        <mxCell id="jk9RJbKhzx2J6C2vbVzu-92" value="" style="shape=hexagon;perimeter=hexagonPerimeter2;whiteSpace=wrap;html=1;fixedSize=1;fillColor=#FFFFFF;rotation=90;" parent="1" vertex="1">
          <mxGeometry x="475" y="195" width="80" height="60" as="geometry" />
        </mxCell>
        <mxCell id="jk9RJbKhzx2J6C2vbVzu-93" value="" style="shape=hexagon;perimeter=hexagonPerimeter2;whiteSpace=wrap;html=1;fixedSize=1;fillColor=#FFFFFF;rotation=90;" parent="1" vertex="1">
          <mxGeometry x="415" y="195" width="80" height="60" as="geometry" />
        </mxCell>
        <mxCell id="jk9RJbKhzx2J6C2vbVzu-94" value="" style="shape=hexagon;perimeter=hexagonPerimeter2;whiteSpace=wrap;html=1;fixedSize=1;fillColor=#FFFFFF;rotation=90;" parent="1" vertex="1">
          <mxGeometry x="355" y="195" width="80" height="60" as="geometry" />
        </mxCell>
        <mxCell id="jk9RJbKhzx2J6C2vbVzu-95" value="" style="shape=hexagon;perimeter=hexagonPerimeter2;whiteSpace=wrap;html=1;fixedSize=1;fillColor=#FFFFFF;rotation=90;" parent="1" vertex="1">
          <mxGeometry x="295" y="195" width="80" height="60" as="geometry" />
        </mxCell>
        <mxCell id="jk9RJbKhzx2J6C2vbVzu-96" value="" style="shape=hexagon;perimeter=hexagonPerimeter2;whiteSpace=wrap;html=1;fixedSize=1;fillColor=#FFFFFF;rotation=90;" parent="1" vertex="1">
          <mxGeometry x="235" y="195" width="80" height="60" as="geometry" />
        </mxCell>
        <mxCell id="jk9RJbKhzx2J6C2vbVzu-97" value="" style="shape=hexagon;perimeter=hexagonPerimeter2;whiteSpace=wrap;html=1;fixedSize=1;fillColor=#FFFFFF;rotation=90;" parent="1" vertex="1">
          <mxGeometry x="175" y="195" width="80" height="60" as="geometry" />
        </mxCell>
        <mxCell id="jk9RJbKhzx2J6C2vbVzu-98" value="" style="shape=hexagon;perimeter=hexagonPerimeter2;whiteSpace=wrap;html=1;fixedSize=1;fillColor=#CCCCCC;rotation=90;" parent="1" vertex="1">
          <mxGeometry x="115" y="195" width="80" height="60" as="geometry" />
        </mxCell>
        <mxCell id="jk9RJbKhzx2J6C2vbVzu-99" value="" style="shape=hexagon;perimeter=hexagonPerimeter2;whiteSpace=wrap;html=1;fixedSize=1;fillColor=#CCCCCC;rotation=90;" parent="1" vertex="1">
          <mxGeometry x="55" y="195" width="80" height="60" as="geometry" />
        </mxCell>
        <mxCell id="jk9RJbKhzx2J6C2vbVzu-100" value="" style="shape=hexagon;perimeter=hexagonPerimeter2;whiteSpace=wrap;html=1;fixedSize=1;fillColor=#CCCCCC;rotation=90;" parent="1" vertex="1">
          <mxGeometry x="-5" y="195" width="80" height="60" as="geometry" />
        </mxCell>
        <mxCell id="jk9RJbKhzx2J6C2vbVzu-101" value="" style="shape=hexagon;perimeter=hexagonPerimeter2;whiteSpace=wrap;html=1;fixedSize=1;fillColor=#E0E0E0;rotation=90;" parent="1" vertex="1">
          <mxGeometry x="685" y="255" width="80" height="60" as="geometry" />
        </mxCell>
        <mxCell id="jk9RJbKhzx2J6C2vbVzu-102" value="" style="shape=hexagon;perimeter=hexagonPerimeter2;whiteSpace=wrap;html=1;fixedSize=1;fillColor=#E0E0E0;rotation=90;" parent="1" vertex="1">
          <mxGeometry x="625" y="255" width="80" height="60" as="geometry" />
        </mxCell>
        <mxCell id="jk9RJbKhzx2J6C2vbVzu-103" value="" style="shape=hexagon;perimeter=hexagonPerimeter2;whiteSpace=wrap;html=1;fixedSize=1;fillColor=#E0E0E0;rotation=90;" parent="1" vertex="1">
          <mxGeometry x="565" y="255" width="80" height="60" as="geometry" />
        </mxCell>
        <mxCell id="jk9RJbKhzx2J6C2vbVzu-104" value="" style="shape=hexagon;perimeter=hexagonPerimeter2;whiteSpace=wrap;html=1;fixedSize=1;fillColor=#FFFFFF;rotation=90;" parent="1" vertex="1">
          <mxGeometry x="505" y="255" width="80" height="60" as="geometry" />
        </mxCell>
        <mxCell id="jk9RJbKhzx2J6C2vbVzu-105" value="" style="shape=hexagon;perimeter=hexagonPerimeter2;whiteSpace=wrap;html=1;fixedSize=1;fillColor=#FFFFFF;rotation=90;" parent="1" vertex="1">
          <mxGeometry x="445" y="255" width="80" height="60" as="geometry" />
        </mxCell>
        <mxCell id="jk9RJbKhzx2J6C2vbVzu-106" value="" style="shape=hexagon;perimeter=hexagonPerimeter2;whiteSpace=wrap;html=1;fixedSize=1;fillColor=#FFFFFF;rotation=90;" parent="1" vertex="1">
          <mxGeometry x="385" y="255" width="80" height="60" as="geometry" />
        </mxCell>
        <mxCell id="jk9RJbKhzx2J6C2vbVzu-107" value="" style="shape=hexagon;perimeter=hexagonPerimeter2;whiteSpace=wrap;html=1;fixedSize=1;fillColor=#FFFFFF;rotation=90;" parent="1" vertex="1">
          <mxGeometry x="325" y="255" width="80" height="60" as="geometry" />
        </mxCell>
        <mxCell id="jk9RJbKhzx2J6C2vbVzu-108" value="" style="shape=hexagon;perimeter=hexagonPerimeter2;whiteSpace=wrap;html=1;fixedSize=1;fillColor=#FFFFFF;rotation=90;" parent="1" vertex="1">
          <mxGeometry x="265" y="255" width="80" height="60" as="geometry" />
        </mxCell>
        <mxCell id="jk9RJbKhzx2J6C2vbVzu-109" value="" style="shape=hexagon;perimeter=hexagonPerimeter2;whiteSpace=wrap;html=1;fixedSize=1;fillColor=#FFFFFF;rotation=90;" parent="1" vertex="1">
          <mxGeometry x="205" y="255" width="80" height="60" as="geometry" />
        </mxCell>
        <mxCell id="jk9RJbKhzx2J6C2vbVzu-110" value="" style="shape=hexagon;perimeter=hexagonPerimeter2;whiteSpace=wrap;html=1;fixedSize=1;fillColor=#CCCCCC;rotation=90;" parent="1" vertex="1">
          <mxGeometry x="145" y="255" width="80" height="60" as="geometry" />
        </mxCell>
        <mxCell id="jk9RJbKhzx2J6C2vbVzu-111" value="" style="shape=hexagon;perimeter=hexagonPerimeter2;whiteSpace=wrap;html=1;fixedSize=1;fillColor=#CCCCCC;rotation=90;" parent="1" vertex="1">
          <mxGeometry x="85" y="255" width="80" height="60" as="geometry" />
        </mxCell>
        <mxCell id="jk9RJbKhzx2J6C2vbVzu-112" value="" style="shape=hexagon;perimeter=hexagonPerimeter2;whiteSpace=wrap;html=1;fixedSize=1;fillColor=#CCCCCC;rotation=90;" parent="1" vertex="1">
          <mxGeometry x="25" y="255" width="80" height="60" as="geometry" />
        </mxCell>
        <mxCell id="jk9RJbKhzx2J6C2vbVzu-113" value="" style="shape=hexagon;perimeter=hexagonPerimeter2;whiteSpace=wrap;html=1;fixedSize=1;fillColor=#E0E0E0;rotation=90;" parent="1" vertex="1">
          <mxGeometry x="655" y="315" width="80" height="60" as="geometry" />
        </mxCell>
        <mxCell id="jk9RJbKhzx2J6C2vbVzu-114" value="" style="shape=hexagon;perimeter=hexagonPerimeter2;whiteSpace=wrap;html=1;fixedSize=1;fillColor=#E0E0E0;rotation=90;" parent="1" vertex="1">
          <mxGeometry x="595" y="315" width="80" height="60" as="geometry" />
        </mxCell>
        <mxCell id="jk9RJbKhzx2J6C2vbVzu-115" value="" style="shape=hexagon;perimeter=hexagonPerimeter2;whiteSpace=wrap;html=1;fixedSize=1;fillColor=#E0E0E0;rotation=90;" parent="1" vertex="1">
          <mxGeometry x="535" y="315" width="80" height="60" as="geometry" />
        </mxCell>
        <mxCell id="jk9RJbKhzx2J6C2vbVzu-116" value="" style="shape=hexagon;perimeter=hexagonPerimeter2;whiteSpace=wrap;html=1;fixedSize=1;fillColor=#FFFFFF;rotation=90;" parent="1" vertex="1">
          <mxGeometry x="475" y="315" width="80" height="60" as="geometry" />
        </mxCell>
        <mxCell id="jk9RJbKhzx2J6C2vbVzu-117" value="" style="shape=hexagon;perimeter=hexagonPerimeter2;whiteSpace=wrap;html=1;fixedSize=1;fillColor=#FFFFFF;rotation=90;" parent="1" vertex="1">
          <mxGeometry x="415" y="315" width="80" height="60" as="geometry" />
        </mxCell>
        <mxCell id="jk9RJbKhzx2J6C2vbVzu-118" value="" style="shape=hexagon;perimeter=hexagonPerimeter2;whiteSpace=wrap;html=1;fixedSize=1;fillColor=#FFFFFF;rotation=90;" parent="1" vertex="1">
          <mxGeometry x="355" y="315" width="80" height="60" as="geometry" />
        </mxCell>
        <mxCell id="jk9RJbKhzx2J6C2vbVzu-119" value="" style="shape=hexagon;perimeter=hexagonPerimeter2;whiteSpace=wrap;html=1;fixedSize=1;fillColor=#FFFFFF;rotation=90;" parent="1" vertex="1">
          <mxGeometry x="295" y="315" width="80" height="60" as="geometry" />
        </mxCell>
        <mxCell id="jk9RJbKhzx2J6C2vbVzu-120" value="" style="shape=hexagon;perimeter=hexagonPerimeter2;whiteSpace=wrap;html=1;fixedSize=1;fillColor=#FFFFFF;rotation=90;" parent="1" vertex="1">
          <mxGeometry x="235" y="315" width="80" height="60" as="geometry" />
        </mxCell>
        <mxCell id="jk9RJbKhzx2J6C2vbVzu-121" value="" style="shape=hexagon;perimeter=hexagonPerimeter2;whiteSpace=wrap;html=1;fixedSize=1;fillColor=#FFFFFF;rotation=90;" parent="1" vertex="1">
          <mxGeometry x="175" y="315" width="80" height="60" as="geometry" />
        </mxCell>
        <mxCell id="jk9RJbKhzx2J6C2vbVzu-122" value="" style="shape=hexagon;perimeter=hexagonPerimeter2;whiteSpace=wrap;html=1;fixedSize=1;fillColor=#CCCCCC;rotation=90;" parent="1" vertex="1">
          <mxGeometry x="115" y="315" width="80" height="60" as="geometry" />
        </mxCell>
        <mxCell id="jk9RJbKhzx2J6C2vbVzu-123" value="" style="shape=hexagon;perimeter=hexagonPerimeter2;whiteSpace=wrap;html=1;fixedSize=1;fillColor=#CCCCCC;rotation=90;" parent="1" vertex="1">
          <mxGeometry x="55" y="315" width="80" height="60" as="geometry" />
        </mxCell>
        <mxCell id="jk9RJbKhzx2J6C2vbVzu-124" value="" style="shape=hexagon;perimeter=hexagonPerimeter2;whiteSpace=wrap;html=1;fixedSize=1;fillColor=#CCCCCC;rotation=90;" parent="1" vertex="1">
          <mxGeometry x="-5" y="315" width="80" height="60" as="geometry" />
        </mxCell>
        <mxCell id="jk9RJbKhzx2J6C2vbVzu-125" value="" style="shape=hexagon;perimeter=hexagonPerimeter2;whiteSpace=wrap;html=1;fixedSize=1;fillColor=#E0E0E0;rotation=90;" parent="1" vertex="1">
          <mxGeometry x="685" y="375" width="80" height="60" as="geometry" />
        </mxCell>
        <mxCell id="jk9RJbKhzx2J6C2vbVzu-126" value="" style="shape=hexagon;perimeter=hexagonPerimeter2;whiteSpace=wrap;html=1;fixedSize=1;fillColor=#E0E0E0;rotation=90;" parent="1" vertex="1">
          <mxGeometry x="625" y="375" width="80" height="60" as="geometry" />
        </mxCell>
        <mxCell id="jk9RJbKhzx2J6C2vbVzu-127" value="" style="shape=hexagon;perimeter=hexagonPerimeter2;whiteSpace=wrap;html=1;fixedSize=1;fillColor=#E0E0E0;rotation=90;" parent="1" vertex="1">
          <mxGeometry x="565" y="375" width="80" height="60" as="geometry" />
        </mxCell>
        <mxCell id="jk9RJbKhzx2J6C2vbVzu-128" value="" style="shape=hexagon;perimeter=hexagonPerimeter2;whiteSpace=wrap;html=1;fixedSize=1;fillColor=#FFFFFF;rotation=90;" parent="1" vertex="1">
          <mxGeometry x="505" y="375" width="80" height="60" as="geometry" />
        </mxCell>
        <mxCell id="jk9RJbKhzx2J6C2vbVzu-129" value="" style="shape=hexagon;perimeter=hexagonPerimeter2;whiteSpace=wrap;html=1;fixedSize=1;fillColor=#FFFFFF;rotation=90;" parent="1" vertex="1">
          <mxGeometry x="445" y="375" width="80" height="60" as="geometry" />
        </mxCell>
        <mxCell id="jk9RJbKhzx2J6C2vbVzu-130" value="" style="shape=hexagon;perimeter=hexagonPerimeter2;whiteSpace=wrap;html=1;fixedSize=1;fillColor=#FFFFFF;rotation=90;" parent="1" vertex="1">
          <mxGeometry x="385" y="375" width="80" height="60" as="geometry" />
        </mxCell>
        <mxCell id="jk9RJbKhzx2J6C2vbVzu-131" value="" style="shape=hexagon;perimeter=hexagonPerimeter2;whiteSpace=wrap;html=1;fixedSize=1;fillColor=#FFFFFF;rotation=90;" parent="1" vertex="1">
          <mxGeometry x="325" y="375" width="80" height="60" as="geometry" />
        </mxCell>
        <mxCell id="jk9RJbKhzx2J6C2vbVzu-132" value="" style="shape=hexagon;perimeter=hexagonPerimeter2;whiteSpace=wrap;html=1;fixedSize=1;fillColor=#FFFFFF;rotation=90;" parent="1" vertex="1">
          <mxGeometry x="265" y="375" width="80" height="60" as="geometry" />
        </mxCell>
        <mxCell id="jk9RJbKhzx2J6C2vbVzu-133" value="" style="shape=hexagon;perimeter=hexagonPerimeter2;whiteSpace=wrap;html=1;fixedSize=1;fillColor=#FFFFFF;rotation=90;" parent="1" vertex="1">
          <mxGeometry x="205" y="375" width="80" height="60" as="geometry" />
        </mxCell>
        <mxCell id="jk9RJbKhzx2J6C2vbVzu-134" value="" style="shape=hexagon;perimeter=hexagonPerimeter2;whiteSpace=wrap;html=1;fixedSize=1;fillColor=#CCCCCC;rotation=90;" parent="1" vertex="1">
          <mxGeometry x="145" y="375" width="80" height="60" as="geometry" />
        </mxCell>
        <mxCell id="jk9RJbKhzx2J6C2vbVzu-135" value="" style="shape=hexagon;perimeter=hexagonPerimeter2;whiteSpace=wrap;html=1;fixedSize=1;fillColor=#CCCCCC;rotation=90;" parent="1" vertex="1">
          <mxGeometry x="85" y="375" width="80" height="60" as="geometry" />
        </mxCell>
        <mxCell id="jk9RJbKhzx2J6C2vbVzu-136" value="" style="shape=hexagon;perimeter=hexagonPerimeter2;whiteSpace=wrap;html=1;fixedSize=1;fillColor=#CCCCCC;rotation=90;" parent="1" vertex="1">
          <mxGeometry x="25" y="375" width="80" height="60" as="geometry" />
        </mxCell>
        <mxCell id="jk9RJbKhzx2J6C2vbVzu-137" value="" style="shape=hexagon;perimeter=hexagonPerimeter2;whiteSpace=wrap;html=1;fixedSize=1;fillColor=#E0E0E0;rotation=90;" parent="1" vertex="1">
          <mxGeometry x="655" y="435" width="80" height="60" as="geometry" />
        </mxCell>
        <mxCell id="jk9RJbKhzx2J6C2vbVzu-138" value="" style="shape=hexagon;perimeter=hexagonPerimeter2;whiteSpace=wrap;html=1;fixedSize=1;fillColor=#E0E0E0;rotation=90;" parent="1" vertex="1">
          <mxGeometry x="595" y="435" width="80" height="60" as="geometry" />
        </mxCell>
        <mxCell id="jk9RJbKhzx2J6C2vbVzu-139" value="" style="shape=hexagon;perimeter=hexagonPerimeter2;whiteSpace=wrap;html=1;fixedSize=1;fillColor=#E0E0E0;rotation=90;" parent="1" vertex="1">
          <mxGeometry x="535" y="435" width="80" height="60" as="geometry" />
        </mxCell>
        <mxCell id="jk9RJbKhzx2J6C2vbVzu-140" value="" style="shape=hexagon;perimeter=hexagonPerimeter2;whiteSpace=wrap;html=1;fixedSize=1;fillColor=#FFFFFF;rotation=90;" parent="1" vertex="1">
          <mxGeometry x="475" y="435" width="80" height="60" as="geometry" />
        </mxCell>
        <mxCell id="jk9RJbKhzx2J6C2vbVzu-141" value="" style="shape=hexagon;perimeter=hexagonPerimeter2;whiteSpace=wrap;html=1;fixedSize=1;fillColor=#FFFFFF;rotation=90;" parent="1" vertex="1">
          <mxGeometry x="415" y="435" width="80" height="60" as="geometry" />
        </mxCell>
        <mxCell id="jk9RJbKhzx2J6C2vbVzu-142" value="" style="shape=hexagon;perimeter=hexagonPerimeter2;whiteSpace=wrap;html=1;fixedSize=1;fillColor=#FFFFFF;rotation=90;" parent="1" vertex="1">
          <mxGeometry x="355" y="435" width="80" height="60" as="geometry" />
        </mxCell>
        <mxCell id="jk9RJbKhzx2J6C2vbVzu-143" value="" style="shape=hexagon;perimeter=hexagonPerimeter2;whiteSpace=wrap;html=1;fixedSize=1;fillColor=#FFFFFF;rotation=90;" parent="1" vertex="1">
          <mxGeometry x="295" y="435" width="80" height="60" as="geometry" />
        </mxCell>
        <mxCell id="jk9RJbKhzx2J6C2vbVzu-144" value="" style="shape=hexagon;perimeter=hexagonPerimeter2;whiteSpace=wrap;html=1;fixedSize=1;fillColor=#FFFFFF;rotation=90;" parent="1" vertex="1">
          <mxGeometry x="235" y="435" width="80" height="60" as="geometry" />
        </mxCell>
        <mxCell id="jk9RJbKhzx2J6C2vbVzu-145" value="" style="shape=hexagon;perimeter=hexagonPerimeter2;whiteSpace=wrap;html=1;fixedSize=1;fillColor=#FFFFFF;rotation=90;" parent="1" vertex="1">
          <mxGeometry x="175" y="435" width="80" height="60" as="geometry" />
        </mxCell>
        <mxCell id="jk9RJbKhzx2J6C2vbVzu-146" value="" style="shape=hexagon;perimeter=hexagonPerimeter2;whiteSpace=wrap;html=1;fixedSize=1;fillColor=#CCCCCC;rotation=90;" parent="1" vertex="1">
          <mxGeometry x="115" y="435" width="80" height="60" as="geometry" />
        </mxCell>
        <mxCell id="jk9RJbKhzx2J6C2vbVzu-147" value="" style="shape=hexagon;perimeter=hexagonPerimeter2;whiteSpace=wrap;html=1;fixedSize=1;fillColor=#CCCCCC;rotation=90;" parent="1" vertex="1">
          <mxGeometry x="55" y="435" width="80" height="60" as="geometry" />
        </mxCell>
        <mxCell id="jk9RJbKhzx2J6C2vbVzu-148" value="" style="shape=hexagon;perimeter=hexagonPerimeter2;whiteSpace=wrap;html=1;fixedSize=1;fillColor=#CCCCCC;rotation=90;" parent="1" vertex="1">
          <mxGeometry x="-5" y="435" width="80" height="60" as="geometry" />
        </mxCell>
        <mxCell id="jk9RJbKhzx2J6C2vbVzu-149" value="" style="shape=hexagon;perimeter=hexagonPerimeter2;whiteSpace=wrap;html=1;fixedSize=1;fillColor=#E0E0E0;rotation=90;" parent="1" vertex="1">
          <mxGeometry x="685" y="495" width="80" height="60" as="geometry" />
        </mxCell>
        <mxCell id="jk9RJbKhzx2J6C2vbVzu-150" value="" style="shape=hexagon;perimeter=hexagonPerimeter2;whiteSpace=wrap;html=1;fixedSize=1;fillColor=#E0E0E0;rotation=90;" parent="1" vertex="1">
          <mxGeometry x="625" y="495" width="80" height="60" as="geometry" />
        </mxCell>
        <mxCell id="jk9RJbKhzx2J6C2vbVzu-151" value="" style="shape=hexagon;perimeter=hexagonPerimeter2;whiteSpace=wrap;html=1;fixedSize=1;fillColor=#E0E0E0;rotation=90;" parent="1" vertex="1">
          <mxGeometry x="565" y="495" width="80" height="60" as="geometry" />
        </mxCell>
        <mxCell id="jk9RJbKhzx2J6C2vbVzu-152" value="" style="shape=hexagon;perimeter=hexagonPerimeter2;whiteSpace=wrap;html=1;fixedSize=1;fillColor=#FFFFFF;rotation=90;" parent="1" vertex="1">
          <mxGeometry x="505" y="495" width="80" height="60" as="geometry" />
        </mxCell>
        <mxCell id="jk9RJbKhzx2J6C2vbVzu-153" value="" style="shape=hexagon;perimeter=hexagonPerimeter2;whiteSpace=wrap;html=1;fixedSize=1;fillColor=#FFFFFF;rotation=90;" parent="1" vertex="1">
          <mxGeometry x="445" y="495" width="80" height="60" as="geometry" />
        </mxCell>
        <mxCell id="jk9RJbKhzx2J6C2vbVzu-154" value="" style="shape=hexagon;perimeter=hexagonPerimeter2;whiteSpace=wrap;html=1;fixedSize=1;fillColor=#FFFFFF;rotation=90;" parent="1" vertex="1">
          <mxGeometry x="385" y="495" width="80" height="60" as="geometry" />
        </mxCell>
        <mxCell id="jk9RJbKhzx2J6C2vbVzu-155" value="" style="shape=hexagon;perimeter=hexagonPerimeter2;whiteSpace=wrap;html=1;fixedSize=1;fillColor=#FFFFFF;rotation=90;" parent="1" vertex="1">
          <mxGeometry x="325" y="495" width="80" height="60" as="geometry" />
        </mxCell>
        <mxCell id="jk9RJbKhzx2J6C2vbVzu-156" value="" style="shape=hexagon;perimeter=hexagonPerimeter2;whiteSpace=wrap;html=1;fixedSize=1;fillColor=#FFFFFF;rotation=90;" parent="1" vertex="1">
          <mxGeometry x="265" y="495" width="80" height="60" as="geometry" />
        </mxCell>
        <mxCell id="jk9RJbKhzx2J6C2vbVzu-157" value="" style="shape=hexagon;perimeter=hexagonPerimeter2;whiteSpace=wrap;html=1;fixedSize=1;fillColor=#FFFFFF;rotation=90;" parent="1" vertex="1">
          <mxGeometry x="205" y="495" width="80" height="60" as="geometry" />
        </mxCell>
        <mxCell id="jk9RJbKhzx2J6C2vbVzu-158" value="" style="shape=hexagon;perimeter=hexagonPerimeter2;whiteSpace=wrap;html=1;fixedSize=1;fillColor=#CCCCCC;rotation=90;" parent="1" vertex="1">
          <mxGeometry x="145" y="495" width="80" height="60" as="geometry" />
        </mxCell>
        <mxCell id="jk9RJbKhzx2J6C2vbVzu-159" value="" style="shape=hexagon;perimeter=hexagonPerimeter2;whiteSpace=wrap;html=1;fixedSize=1;fillColor=#CCCCCC;rotation=90;" parent="1" vertex="1">
          <mxGeometry x="85" y="495" width="80" height="60" as="geometry" />
        </mxCell>
        <mxCell id="jk9RJbKhzx2J6C2vbVzu-160" value="" style="shape=hexagon;perimeter=hexagonPerimeter2;whiteSpace=wrap;html=1;fixedSize=1;fillColor=#CCCCCC;rotation=90;" parent="1" vertex="1">
          <mxGeometry x="25" y="495" width="80" height="60" as="geometry" />
        </mxCell>
        <mxCell id="jk9RJbKhzx2J6C2vbVzu-161" value="" style="shape=hexagon;perimeter=hexagonPerimeter2;whiteSpace=wrap;html=1;fixedSize=1;fillColor=#E0E0E0;strokeColor=#23445d;rotation=90;" parent="1" vertex="1">
          <mxGeometry x="655" y="555" width="80" height="60" as="geometry" />
        </mxCell>
        <mxCell id="jk9RJbKhzx2J6C2vbVzu-162" value="" style="shape=hexagon;perimeter=hexagonPerimeter2;whiteSpace=wrap;html=1;fixedSize=1;fillColor=#E0E0E0;strokeColor=#23445d;rotation=90;" parent="1" vertex="1">
          <mxGeometry x="595" y="555" width="80" height="60" as="geometry" />
        </mxCell>
        <mxCell id="jk9RJbKhzx2J6C2vbVzu-163" value="" style="shape=hexagon;perimeter=hexagonPerimeter2;whiteSpace=wrap;html=1;fixedSize=1;fillColor=#E0E0E0;strokeColor=#23445d;rotation=90;" parent="1" vertex="1">
          <mxGeometry x="535" y="555" width="80" height="60" as="geometry" />
        </mxCell>
        <mxCell id="jk9RJbKhzx2J6C2vbVzu-164" value="" style="shape=hexagon;perimeter=hexagonPerimeter2;whiteSpace=wrap;html=1;fixedSize=1;fillColor=#FFFFFF;strokeColor=#23445d;rotation=90;" parent="1" vertex="1">
          <mxGeometry x="475" y="555" width="80" height="60" as="geometry" />
        </mxCell>
        <mxCell id="jk9RJbKhzx2J6C2vbVzu-165" value="" style="shape=hexagon;perimeter=hexagonPerimeter2;whiteSpace=wrap;html=1;fixedSize=1;fillColor=#FFFFFF;strokeColor=#23445d;rotation=90;" parent="1" vertex="1">
          <mxGeometry x="415" y="555" width="80" height="60" as="geometry" />
        </mxCell>
        <mxCell id="jk9RJbKhzx2J6C2vbVzu-166" value="" style="shape=hexagon;perimeter=hexagonPerimeter2;whiteSpace=wrap;html=1;fixedSize=1;fillColor=#FFFFFF;strokeColor=#23445d;rotation=90;" parent="1" vertex="1">
          <mxGeometry x="355" y="555" width="80" height="60" as="geometry" />
        </mxCell>
        <mxCell id="jk9RJbKhzx2J6C2vbVzu-167" value="" style="shape=hexagon;perimeter=hexagonPerimeter2;whiteSpace=wrap;html=1;fixedSize=1;fillColor=#FFFFFF;strokeColor=#23445d;rotation=90;" parent="1" vertex="1">
          <mxGeometry x="295" y="555" width="80" height="60" as="geometry" />
        </mxCell>
        <mxCell id="jk9RJbKhzx2J6C2vbVzu-168" value="" style="shape=hexagon;perimeter=hexagonPerimeter2;whiteSpace=wrap;html=1;fixedSize=1;fillColor=#FFFFFF;strokeColor=#23445d;rotation=90;" parent="1" vertex="1">
          <mxGeometry x="235" y="555" width="80" height="60" as="geometry" />
        </mxCell>
        <mxCell id="jk9RJbKhzx2J6C2vbVzu-169" value="" style="shape=hexagon;perimeter=hexagonPerimeter2;whiteSpace=wrap;html=1;fixedSize=1;fillColor=#FFFFFF;strokeColor=#23445d;rotation=90;" parent="1" vertex="1">
          <mxGeometry x="175" y="555" width="80" height="60" as="geometry" />
        </mxCell>
        <mxCell id="jk9RJbKhzx2J6C2vbVzu-170" value="" style="shape=hexagon;perimeter=hexagonPerimeter2;whiteSpace=wrap;html=1;fixedSize=1;fillColor=#CCCCCC;strokeColor=#23445d;rotation=90;" parent="1" vertex="1">
          <mxGeometry x="115" y="555" width="80" height="60" as="geometry" />
        </mxCell>
        <mxCell id="jk9RJbKhzx2J6C2vbVzu-171" value="" style="shape=hexagon;perimeter=hexagonPerimeter2;whiteSpace=wrap;html=1;fixedSize=1;fillColor=#CCCCCC;strokeColor=#23445d;rotation=90;" parent="1" vertex="1">
          <mxGeometry x="55" y="555" width="80" height="60" as="geometry" />
        </mxCell>
        <mxCell id="jk9RJbKhzx2J6C2vbVzu-172" value="" style="shape=hexagon;perimeter=hexagonPerimeter2;whiteSpace=wrap;html=1;fixedSize=1;fillColor=#CCCCCC;strokeColor=#23445d;rotation=90;" parent="1" vertex="1">
          <mxGeometry x="-5" y="555" width="80" height="60" as="geometry" />
        </mxCell>
        <mxCell id="jk9RJbKhzx2J6C2vbVzu-173" value="" style="shape=hexagon;perimeter=hexagonPerimeter2;whiteSpace=wrap;html=1;fixedSize=1;fillColor=#E0E0E0;strokeColor=#23445d;rotation=90;" parent="1" vertex="1">
          <mxGeometry x="685" y="615" width="80" height="60" as="geometry" />
        </mxCell>
        <mxCell id="jk9RJbKhzx2J6C2vbVzu-174" value="" style="shape=hexagon;perimeter=hexagonPerimeter2;whiteSpace=wrap;html=1;fixedSize=1;fillColor=#E0E0E0;strokeColor=#23445d;rotation=90;" parent="1" vertex="1">
          <mxGeometry x="625" y="615" width="80" height="60" as="geometry" />
        </mxCell>
        <mxCell id="jk9RJbKhzx2J6C2vbVzu-175" value="" style="shape=hexagon;perimeter=hexagonPerimeter2;whiteSpace=wrap;html=1;fixedSize=1;fillColor=#E0E0E0;strokeColor=#23445d;rotation=90;" parent="1" vertex="1">
          <mxGeometry x="565" y="615" width="80" height="60" as="geometry" />
        </mxCell>
        <mxCell id="jk9RJbKhzx2J6C2vbVzu-176" value="" style="shape=hexagon;perimeter=hexagonPerimeter2;whiteSpace=wrap;html=1;fixedSize=1;fillColor=#FFFFFF;strokeColor=#23445d;rotation=90;" parent="1" vertex="1">
          <mxGeometry x="505" y="615" width="80" height="60" as="geometry" />
        </mxCell>
        <mxCell id="jk9RJbKhzx2J6C2vbVzu-177" value="" style="shape=hexagon;perimeter=hexagonPerimeter2;whiteSpace=wrap;html=1;fixedSize=1;fillColor=#FFFFFF;strokeColor=#23445d;rotation=90;" parent="1" vertex="1">
          <mxGeometry x="445" y="615" width="80" height="60" as="geometry" />
        </mxCell>
        <mxCell id="jk9RJbKhzx2J6C2vbVzu-178" value="" style="shape=hexagon;perimeter=hexagonPerimeter2;whiteSpace=wrap;html=1;fixedSize=1;fillColor=#FFFFFF;strokeColor=#23445d;rotation=90;" parent="1" vertex="1">
          <mxGeometry x="385" y="615" width="80" height="60" as="geometry" />
        </mxCell>
        <mxCell id="jk9RJbKhzx2J6C2vbVzu-179" value="" style="shape=hexagon;perimeter=hexagonPerimeter2;whiteSpace=wrap;html=1;fixedSize=1;fillColor=#FFFFFF;strokeColor=#23445d;rotation=90;" parent="1" vertex="1">
          <mxGeometry x="325" y="615" width="80" height="60" as="geometry" />
        </mxCell>
        <mxCell id="jk9RJbKhzx2J6C2vbVzu-180" value="" style="shape=hexagon;perimeter=hexagonPerimeter2;whiteSpace=wrap;html=1;fixedSize=1;fillColor=#FFFFFF;strokeColor=#23445d;rotation=90;" parent="1" vertex="1">
          <mxGeometry x="265" y="615" width="80" height="60" as="geometry" />
        </mxCell>
        <mxCell id="jk9RJbKhzx2J6C2vbVzu-181" value="" style="shape=hexagon;perimeter=hexagonPerimeter2;whiteSpace=wrap;html=1;fixedSize=1;fillColor=#FFFFFF;strokeColor=#23445d;rotation=90;" parent="1" vertex="1">
          <mxGeometry x="205" y="615" width="80" height="60" as="geometry" />
        </mxCell>
        <mxCell id="jk9RJbKhzx2J6C2vbVzu-182" value="" style="shape=hexagon;perimeter=hexagonPerimeter2;whiteSpace=wrap;html=1;fixedSize=1;fillColor=#CCCCCC;strokeColor=#23445d;rotation=90;" parent="1" vertex="1">
          <mxGeometry x="145" y="615" width="80" height="60" as="geometry" />
        </mxCell>
        <mxCell id="jk9RJbKhzx2J6C2vbVzu-183" value="" style="shape=hexagon;perimeter=hexagonPerimeter2;whiteSpace=wrap;html=1;fixedSize=1;fillColor=#CCCCCC;strokeColor=#23445d;rotation=90;" parent="1" vertex="1">
          <mxGeometry x="85" y="615" width="80" height="60" as="geometry" />
        </mxCell>
        <mxCell id="jk9RJbKhzx2J6C2vbVzu-184" value="" style="shape=hexagon;perimeter=hexagonPerimeter2;whiteSpace=wrap;html=1;fixedSize=1;fillColor=#CCCCCC;strokeColor=#23445d;rotation=90;" parent="1" vertex="1">
          <mxGeometry x="25" y="615" width="80" height="60" as="geometry" />
        </mxCell>
        <mxCell id="jk9RJbKhzx2J6C2vbVzu-185" value="" style="shape=hexagon;perimeter=hexagonPerimeter2;whiteSpace=wrap;html=1;fixedSize=1;fillColor=#E0E0E0;strokeColor=#23445d;rotation=90;" parent="1" vertex="1">
          <mxGeometry x="655" y="675" width="80" height="60" as="geometry" />
        </mxCell>
        <mxCell id="jk9RJbKhzx2J6C2vbVzu-186" value="" style="shape=hexagon;perimeter=hexagonPerimeter2;whiteSpace=wrap;html=1;fixedSize=1;fillColor=#E0E0E0;strokeColor=#23445d;rotation=90;" parent="1" vertex="1">
          <mxGeometry x="595" y="675" width="80" height="60" as="geometry" />
        </mxCell>
        <mxCell id="jk9RJbKhzx2J6C2vbVzu-187" value="" style="shape=hexagon;perimeter=hexagonPerimeter2;whiteSpace=wrap;html=1;fixedSize=1;fillColor=#E0E0E0;strokeColor=#23445d;rotation=90;" parent="1" vertex="1">
          <mxGeometry x="535" y="675" width="80" height="60" as="geometry" />
        </mxCell>
        <mxCell id="jk9RJbKhzx2J6C2vbVzu-188" value="" style="shape=hexagon;perimeter=hexagonPerimeter2;whiteSpace=wrap;html=1;fixedSize=1;fillColor=#FFFFFF;strokeColor=#23445d;rotation=90;" parent="1" vertex="1">
          <mxGeometry x="475" y="675" width="80" height="60" as="geometry" />
        </mxCell>
        <mxCell id="jk9RJbKhzx2J6C2vbVzu-189" value="" style="shape=hexagon;perimeter=hexagonPerimeter2;whiteSpace=wrap;html=1;fixedSize=1;fillColor=#FFFFFF;strokeColor=#23445d;rotation=90;" parent="1" vertex="1">
          <mxGeometry x="415" y="675" width="80" height="60" as="geometry" />
        </mxCell>
        <mxCell id="jk9RJbKhzx2J6C2vbVzu-190" value="" style="shape=hexagon;perimeter=hexagonPerimeter2;whiteSpace=wrap;html=1;fixedSize=1;fillColor=#FFFFFF;strokeColor=#23445d;rotation=90;" parent="1" vertex="1">
          <mxGeometry x="355" y="675" width="80" height="60" as="geometry" />
        </mxCell>
        <mxCell id="jk9RJbKhzx2J6C2vbVzu-191" value="" style="shape=hexagon;perimeter=hexagonPerimeter2;whiteSpace=wrap;html=1;fixedSize=1;fillColor=#FFFFFF;strokeColor=#23445d;rotation=90;" parent="1" vertex="1">
          <mxGeometry x="295" y="675" width="80" height="60" as="geometry" />
        </mxCell>
        <mxCell id="jk9RJbKhzx2J6C2vbVzu-192" value="" style="shape=hexagon;perimeter=hexagonPerimeter2;whiteSpace=wrap;html=1;fixedSize=1;fillColor=#FFFFFF;strokeColor=#23445d;rotation=90;" parent="1" vertex="1">
          <mxGeometry x="235" y="675" width="80" height="60" as="geometry" />
        </mxCell>
        <mxCell id="jk9RJbKhzx2J6C2vbVzu-193" value="" style="shape=hexagon;perimeter=hexagonPerimeter2;whiteSpace=wrap;html=1;fixedSize=1;fillColor=#FFFFFF;strokeColor=#23445d;rotation=90;" parent="1" vertex="1">
          <mxGeometry x="175" y="675" width="80" height="60" as="geometry" />
        </mxCell>
        <mxCell id="jk9RJbKhzx2J6C2vbVzu-194" value="" style="shape=hexagon;perimeter=hexagonPerimeter2;whiteSpace=wrap;html=1;fixedSize=1;fillColor=#CCCCCC;strokeColor=#23445d;rotation=90;" parent="1" vertex="1">
          <mxGeometry x="115" y="675" width="80" height="60" as="geometry" />
        </mxCell>
        <mxCell id="jk9RJbKhzx2J6C2vbVzu-195" value="" style="shape=hexagon;perimeter=hexagonPerimeter2;whiteSpace=wrap;html=1;fixedSize=1;fillColor=#CCCCCC;strokeColor=#23445d;rotation=90;" parent="1" vertex="1">
          <mxGeometry x="55" y="675" width="80" height="60" as="geometry" />
        </mxCell>
        <mxCell id="jk9RJbKhzx2J6C2vbVzu-196" value="" style="shape=hexagon;perimeter=hexagonPerimeter2;whiteSpace=wrap;html=1;fixedSize=1;fillColor=#CCCCCC;strokeColor=#23445d;rotation=90;" parent="1" vertex="1">
          <mxGeometry x="-5" y="675" width="80" height="60" as="geometry" />
        </mxCell>
        <mxCell id="jk9RJbKhzx2J6C2vbVzu-240" value="Filed" style="whiteSpace=wrap;html=1;" parent="1" vertex="1">
          <mxGeometry x="65" y="790" width="270" height="320" as="geometry" />
        </mxCell>
        <mxCell id="QWAg-1l1D4s0uI_y3CBR-188" value="Grave&lt;br&gt;&lt;br&gt;Space" style="rounded=0;whiteSpace=wrap;html=1;" parent="1" vertex="1">
          <mxGeometry x="335" y="950" width="50" height="80" as="geometry" />
        </mxCell>
        <mxCell id="QWAg-1l1D4s0uI_y3CBR-186" value="Main&lt;br&gt;&lt;br&gt;Deck&lt;br&gt;&lt;br&gt;Space" style="rounded=0;whiteSpace=wrap;html=1;" parent="1" vertex="1">
          <mxGeometry x="335" y="1030" width="50" height="80" as="geometry" />
        </mxCell>
        <mxCell id="QWAg-1l1D4s0uI_y3CBR-189" value="Skill&lt;br&gt;&lt;br&gt;Card&lt;br&gt;&lt;br&gt;Space" style="rounded=0;whiteSpace=wrap;html=1;" parent="1" vertex="1">
          <mxGeometry x="15" y="950" width="50" height="80" as="geometry" />
        </mxCell>
        <mxCell id="QWAg-1l1D4s0uI_y3CBR-190" value="Piece Class Limit&amp;nbsp;" style="rounded=0;whiteSpace=wrap;html=1;" parent="1" vertex="1">
          <mxGeometry x="15" y="1142" width="115" height="40" as="geometry" />
        </mxCell>
        <mxCell id="QWAg-1l1D4s0uI_y3CBR-201" value="Move&lt;br&gt;Point" style="rounded=0;whiteSpace=wrap;html=1;" parent="1" vertex="1">
          <mxGeometry x="385" y="1143" width="50" height="39" as="geometry" />
        </mxCell>
        <mxCell id="QWAg-1l1D4s0uI_y3CBR-187" value="Player&lt;span style=&quot;white-space: pre;&quot;&gt; &lt;/span&gt;&lt;br&gt;&lt;br&gt;Hand&lt;br&gt;&lt;br&gt;&lt;span style=&quot;white-space: pre;&quot;&gt; &lt;/span&gt;Space" style="rounded=0;whiteSpace=wrap;html=1;fillColor=none;" parent="1" vertex="1">
          <mxGeometry x="15" y="1182" width="420" height="120" as="geometry" />
        </mxCell>
        <mxCell id="QWAg-1l1D4s0uI_y3CBR-191" value="" style="rounded=0;whiteSpace=wrap;html=1;" parent="1" vertex="1">
          <mxGeometry x="480" y="921" width="200" height="280" as="geometry" />
        </mxCell>
        <mxCell id="QWAg-1l1D4s0uI_y3CBR-192" value="Name" style="rounded=0;whiteSpace=wrap;html=1;" parent="1" vertex="1">
          <mxGeometry x="480" y="921" width="140" height="20" as="geometry" />
        </mxCell>
        <mxCell id="QWAg-1l1D4s0uI_y3CBR-193" value="Effect" style="rounded=0;whiteSpace=wrap;html=1;" parent="1" vertex="1">
          <mxGeometry x="480" y="1141" width="160" height="60" as="geometry" />
        </mxCell>
        <mxCell id="QWAg-1l1D4s0uI_y3CBR-195" value="Class" style="rounded=0;whiteSpace=wrap;html=1;" parent="1" vertex="1">
          <mxGeometry x="620" y="921" width="60" height="30" as="geometry" />
        </mxCell>
        <mxCell id="QWAg-1l1D4s0uI_y3CBR-196" value="" style="rounded=0;whiteSpace=wrap;html=1;" parent="1" vertex="1">
          <mxGeometry x="700" y="921" width="200" height="280" as="geometry" />
        </mxCell>
        <mxCell id="QWAg-1l1D4s0uI_y3CBR-200" value="Class" style="rounded=0;whiteSpace=wrap;html=1;" parent="1" vertex="1">
          <mxGeometry x="840" y="921" width="60" height="29" as="geometry" />
        </mxCell>
        <mxCell id="jk9RJbKhzx2J6C2vbVzu-21" style="edgeStyle=orthogonalEdgeStyle;rounded=0;orthogonalLoop=1;jettySize=auto;html=1;exitX=1;exitY=0.5;exitDx=0;exitDy=0;entryX=1;entryY=0.5;entryDx=0;entryDy=0;" parent="1" source="jk9RJbKhzx2J6C2vbVzu-3" target="jk9RJbKhzx2J6C2vbVzu-6" edge="1">
          <mxGeometry relative="1" as="geometry" />
        </mxCell>
        <mxCell id="jk9RJbKhzx2J6C2vbVzu-22" style="edgeStyle=orthogonalEdgeStyle;rounded=0;orthogonalLoop=1;jettySize=auto;html=1;exitX=1;exitY=0.5;exitDx=0;exitDy=0;entryX=1;entryY=0.5;entryDx=0;entryDy=0;" parent="1" source="jk9RJbKhzx2J6C2vbVzu-3" target="jk9RJbKhzx2J6C2vbVzu-8" edge="1">
          <mxGeometry relative="1" as="geometry" />
        </mxCell>
        <mxCell id="jk9RJbKhzx2J6C2vbVzu-3" value="MainDeck" style="whiteSpace=wrap;html=1;" parent="1" vertex="1">
          <mxGeometry x="800" y="230" width="120" height="60" as="geometry" />
        </mxCell>
        <mxCell id="jk9RJbKhzx2J6C2vbVzu-20" style="edgeStyle=orthogonalEdgeStyle;rounded=0;orthogonalLoop=1;jettySize=auto;html=1;exitX=1;exitY=0.5;exitDx=0;exitDy=0;entryX=1;entryY=0.5;entryDx=0;entryDy=0;" parent="1" source="jk9RJbKhzx2J6C2vbVzu-4" target="jk9RJbKhzx2J6C2vbVzu-7" edge="1">
          <mxGeometry relative="1" as="geometry" />
        </mxCell>
        <mxCell id="jk9RJbKhzx2J6C2vbVzu-4" value="SkillDeck" style="whiteSpace=wrap;html=1;" parent="1" vertex="1">
          <mxGeometry x="800" y="80" width="120" height="60" as="geometry" />
        </mxCell>
        <mxCell id="jk9RJbKhzx2J6C2vbVzu-6" value="Piece" style="rounded=0;whiteSpace=wrap;html=1;" parent="1" vertex="1">
          <mxGeometry x="800" y="320" width="80" height="40" as="geometry" />
        </mxCell>
        <mxCell id="jk9RJbKhzx2J6C2vbVzu-7" value="Skill" style="rounded=0;whiteSpace=wrap;html=1;" parent="1" vertex="1">
          <mxGeometry x="800" y="170" width="80" height="40" as="geometry" />
        </mxCell>
        <mxCell id="jk9RJbKhzx2J6C2vbVzu-8" value="Item" style="rounded=0;whiteSpace=wrap;html=1;" parent="1" vertex="1">
          <mxGeometry x="800" y="380" width="80" height="40" as="geometry" />
        </mxCell>
        <mxCell id="jk9RJbKhzx2J6C2vbVzu-199" style="edgeStyle=orthogonalEdgeStyle;rounded=0;orthogonalLoop=1;jettySize=auto;html=1;exitX=1;exitY=0.25;exitDx=0;exitDy=0;entryX=0;entryY=0.5;entryDx=0;entryDy=0;" parent="1" source="jk9RJbKhzx2J6C2vbVzu-197" target="jk9RJbKhzx2J6C2vbVzu-198" edge="1">
          <mxGeometry relative="1" as="geometry" />
        </mxCell>
        <mxCell id="jk9RJbKhzx2J6C2vbVzu-198" value="SummonSpace" style="whiteSpace=wrap;html=1;" parent="1" vertex="1">
          <mxGeometry x="800" width="120" height="60" as="geometry" />
        </mxCell>
        <mxCell id="jk9RJbKhzx2J6C2vbVzu-197" value="" style="whiteSpace=wrap;html=1;fillColor=none;strokeColor=#F50000;strokeWidth=5;" parent="1" vertex="1">
          <mxGeometry x="540" width="225" height="750" as="geometry" />
        </mxCell>
        <mxCell id="2STAtWdD-6BN4LUwrreX-1" style="edgeStyle=orthogonalEdgeStyle;rounded=0;orthogonalLoop=1;jettySize=auto;html=1;exitX=0.5;exitY=1;exitDx=0;exitDy=0;" parent="1" source="jk9RJbKhzx2J6C2vbVzu-200" target="jk9RJbKhzx2J6C2vbVzu-201" edge="1">
          <mxGeometry relative="1" as="geometry" />
        </mxCell>
        <mxCell id="2STAtWdD-6BN4LUwrreX-2" style="edgeStyle=orthogonalEdgeStyle;rounded=0;orthogonalLoop=1;jettySize=auto;html=1;exitX=0.5;exitY=1;exitDx=0;exitDy=0;" parent="1" source="jk9RJbKhzx2J6C2vbVzu-200" target="jk9RJbKhzx2J6C2vbVzu-205" edge="1">
          <mxGeometry relative="1" as="geometry" />
        </mxCell>
        <mxCell id="jk9RJbKhzx2J6C2vbVzu-200" value="UseCard" style="whiteSpace=wrap;html=1;" parent="1" vertex="1">
          <mxGeometry x="1221" y="135" width="120" height="60" as="geometry" />
        </mxCell>
        <mxCell id="2STAtWdD-6BN4LUwrreX-3" style="edgeStyle=orthogonalEdgeStyle;rounded=0;orthogonalLoop=1;jettySize=auto;html=1;exitX=0.5;exitY=1;exitDx=0;exitDy=0;entryX=0.5;entryY=0;entryDx=0;entryDy=0;" parent="1" source="jk9RJbKhzx2J6C2vbVzu-201" target="jk9RJbKhzx2J6C2vbVzu-202" edge="1">
          <mxGeometry relative="1" as="geometry" />
        </mxCell>
        <mxCell id="2STAtWdD-6BN4LUwrreX-4" style="edgeStyle=orthogonalEdgeStyle;rounded=0;orthogonalLoop=1;jettySize=auto;html=1;exitX=0.5;exitY=1;exitDx=0;exitDy=0;" parent="1" source="jk9RJbKhzx2J6C2vbVzu-201" target="jk9RJbKhzx2J6C2vbVzu-203" edge="1">
          <mxGeometry relative="1" as="geometry" />
        </mxCell>
        <mxCell id="jk9RJbKhzx2J6C2vbVzu-201" value="PieceCard" style="whiteSpace=wrap;html=1;" parent="1" vertex="1">
          <mxGeometry x="1140" y="275" width="120" height="60" as="geometry" />
        </mxCell>
        <mxCell id="jk9RJbKhzx2J6C2vbVzu-202" value="Normal&lt;br&gt;Piece" style="whiteSpace=wrap;html=1;" parent="1" vertex="1">
          <mxGeometry x="1221" y="415" width="120" height="60" as="geometry" />
        </mxCell>
        <mxCell id="2STAtWdD-6BN4LUwrreX-15" style="edgeStyle=orthogonalEdgeStyle;rounded=0;orthogonalLoop=1;jettySize=auto;html=1;exitX=0.5;exitY=1;exitDx=0;exitDy=0;entryX=0.5;entryY=0;entryDx=0;entryDy=0;" parent="1" source="jk9RJbKhzx2J6C2vbVzu-203" target="2STAtWdD-6BN4LUwrreX-14" edge="1">
          <mxGeometry relative="1" as="geometry" />
        </mxCell>
        <mxCell id="2STAtWdD-6BN4LUwrreX-23" style="edgeStyle=orthogonalEdgeStyle;rounded=0;orthogonalLoop=1;jettySize=auto;html=1;exitX=0;exitY=0.5;exitDx=0;exitDy=0;entryX=0;entryY=0.5;entryDx=0;entryDy=0;" parent="1" source="jk9RJbKhzx2J6C2vbVzu-203" target="2STAtWdD-6BN4LUwrreX-20" edge="1">
          <mxGeometry relative="1" as="geometry">
            <Array as="points">
              <mxPoint x="1000" y="445" />
              <mxPoint x="1000" y="50" />
            </Array>
          </mxGeometry>
        </mxCell>
        <mxCell id="jk9RJbKhzx2J6C2vbVzu-203" value="Promotion&lt;br&gt;Piece" style="whiteSpace=wrap;html=1;" parent="1" vertex="1">
          <mxGeometry x="1060" y="415" width="120" height="60" as="geometry" />
        </mxCell>
        <mxCell id="jk9RJbKhzx2J6C2vbVzu-225" style="edgeStyle=orthogonalEdgeStyle;rounded=0;orthogonalLoop=1;jettySize=auto;html=1;exitX=0.5;exitY=1;exitDx=0;exitDy=0;entryX=0.5;entryY=0;entryDx=0;entryDy=0;" parent="1" source="jk9RJbKhzx2J6C2vbVzu-204" target="jk9RJbKhzx2J6C2vbVzu-212" edge="1">
          <mxGeometry relative="1" as="geometry" />
        </mxCell>
        <mxCell id="jk9RJbKhzx2J6C2vbVzu-204" value="Skill" style="whiteSpace=wrap;html=1;" parent="1" vertex="1">
          <mxGeometry x="1570" y="720" width="120" height="60" as="geometry" />
        </mxCell>
        <mxCell id="2STAtWdD-6BN4LUwrreX-25" style="edgeStyle=orthogonalEdgeStyle;rounded=0;orthogonalLoop=1;jettySize=auto;html=1;exitX=0.5;exitY=1;exitDx=0;exitDy=0;" parent="1" source="jk9RJbKhzx2J6C2vbVzu-205" target="2STAtWdD-6BN4LUwrreX-24" edge="1">
          <mxGeometry relative="1" as="geometry" />
        </mxCell>
        <mxCell id="2STAtWdD-6BN4LUwrreX-26" style="edgeStyle=orthogonalEdgeStyle;rounded=0;orthogonalLoop=1;jettySize=auto;html=1;exitX=0.5;exitY=1;exitDx=0;exitDy=0;entryX=0;entryY=0.5;entryDx=0;entryDy=0;" parent="1" source="jk9RJbKhzx2J6C2vbVzu-205" target="2STAtWdD-6BN4LUwrreX-20" edge="1">
          <mxGeometry relative="1" as="geometry">
            <Array as="points">
              <mxPoint x="1360" y="640" />
              <mxPoint x="1000" y="640" />
              <mxPoint x="1000" y="50" />
            </Array>
          </mxGeometry>
        </mxCell>
        <mxCell id="jk9RJbKhzx2J6C2vbVzu-205" value="Item" style="whiteSpace=wrap;html=1;" parent="1" vertex="1">
          <mxGeometry x="1300" y="275" width="120" height="60" as="geometry" />
        </mxCell>
        <mxCell id="jk9RJbKhzx2J6C2vbVzu-220" style="edgeStyle=orthogonalEdgeStyle;rounded=0;orthogonalLoop=1;jettySize=auto;html=1;exitX=0;exitY=0.5;exitDx=0;exitDy=0;" parent="1" source="jk9RJbKhzx2J6C2vbVzu-206" target="jk9RJbKhzx2J6C2vbVzu-207" edge="1">
          <mxGeometry relative="1" as="geometry" />
        </mxCell>
        <mxCell id="jk9RJbKhzx2J6C2vbVzu-221" style="edgeStyle=orthogonalEdgeStyle;rounded=0;orthogonalLoop=1;jettySize=auto;html=1;exitX=1;exitY=0.5;exitDx=0;exitDy=0;" parent="1" source="jk9RJbKhzx2J6C2vbVzu-206" target="jk9RJbKhzx2J6C2vbVzu-204" edge="1">
          <mxGeometry relative="1" as="geometry" />
        </mxCell>
        <mxCell id="jk9RJbKhzx2J6C2vbVzu-222" style="edgeStyle=orthogonalEdgeStyle;rounded=0;orthogonalLoop=1;jettySize=auto;html=1;exitX=0.5;exitY=1;exitDx=0;exitDy=0;" parent="1" source="jk9RJbKhzx2J6C2vbVzu-206" target="jk9RJbKhzx2J6C2vbVzu-208" edge="1">
          <mxGeometry relative="1" as="geometry" />
        </mxCell>
        <mxCell id="jk9RJbKhzx2J6C2vbVzu-206" value="Piece" style="whiteSpace=wrap;html=1;" parent="1" vertex="1">
          <mxGeometry x="1430" y="640" width="120" height="60" as="geometry" />
        </mxCell>
        <mxCell id="jk9RJbKhzx2J6C2vbVzu-223" style="edgeStyle=orthogonalEdgeStyle;rounded=0;orthogonalLoop=1;jettySize=auto;html=1;exitX=0.5;exitY=1;exitDx=0;exitDy=0;" parent="1" source="jk9RJbKhzx2J6C2vbVzu-207" target="jk9RJbKhzx2J6C2vbVzu-209" edge="1">
          <mxGeometry relative="1" as="geometry" />
        </mxCell>
        <mxCell id="jk9RJbKhzx2J6C2vbVzu-207" value="Move&lt;br&gt;Key" style="whiteSpace=wrap;html=1;" parent="1" vertex="1">
          <mxGeometry x="1290" y="720" width="120" height="60" as="geometry" />
        </mxCell>
        <mxCell id="jk9RJbKhzx2J6C2vbVzu-224" style="edgeStyle=orthogonalEdgeStyle;rounded=0;orthogonalLoop=1;jettySize=auto;html=1;exitX=0.5;exitY=1;exitDx=0;exitDy=0;" parent="1" source="jk9RJbKhzx2J6C2vbVzu-208" target="jk9RJbKhzx2J6C2vbVzu-210" edge="1">
          <mxGeometry relative="1" as="geometry" />
        </mxCell>
        <mxCell id="jk9RJbKhzx2J6C2vbVzu-208" value="Attack&lt;br&gt;Key" style="whiteSpace=wrap;html=1;" parent="1" vertex="1">
          <mxGeometry x="1430" y="720" width="120" height="60" as="geometry" />
        </mxCell>
        <mxCell id="jk9RJbKhzx2J6C2vbVzu-217" style="edgeStyle=orthogonalEdgeStyle;rounded=0;orthogonalLoop=1;jettySize=auto;html=1;exitX=0.5;exitY=1;exitDx=0;exitDy=0;entryX=0;entryY=0.5;entryDx=0;entryDy=0;" parent="1" source="jk9RJbKhzx2J6C2vbVzu-209" target="jk9RJbKhzx2J6C2vbVzu-211" edge="1">
          <mxGeometry relative="1" as="geometry" />
        </mxCell>
        <mxCell id="jk9RJbKhzx2J6C2vbVzu-209" value="CanMoveRange" style="whiteSpace=wrap;html=1;" parent="1" vertex="1">
          <mxGeometry x="1290" y="800" width="120" height="60" as="geometry" />
        </mxCell>
        <mxCell id="jk9RJbKhzx2J6C2vbVzu-218" style="edgeStyle=orthogonalEdgeStyle;rounded=0;orthogonalLoop=1;jettySize=auto;html=1;exitX=0.5;exitY=1;exitDx=0;exitDy=0;entryX=0.5;entryY=0;entryDx=0;entryDy=0;" parent="1" source="jk9RJbKhzx2J6C2vbVzu-210" target="jk9RJbKhzx2J6C2vbVzu-211" edge="1">
          <mxGeometry relative="1" as="geometry" />
        </mxCell>
        <mxCell id="jk9RJbKhzx2J6C2vbVzu-210" value="CanAttackRange" style="whiteSpace=wrap;html=1;" parent="1" vertex="1">
          <mxGeometry x="1430" y="800" width="120" height="60" as="geometry" />
        </mxCell>
        <mxCell id="jk9RJbKhzx2J6C2vbVzu-226" style="edgeStyle=orthogonalEdgeStyle;rounded=0;orthogonalLoop=1;jettySize=auto;html=1;exitX=0.5;exitY=1;exitDx=0;exitDy=0;entryX=0.5;entryY=0;entryDx=0;entryDy=0;" parent="1" source="jk9RJbKhzx2J6C2vbVzu-211" target="jk9RJbKhzx2J6C2vbVzu-213" edge="1">
          <mxGeometry relative="1" as="geometry">
            <Array as="points">
              <mxPoint x="1490" y="950" />
              <mxPoint x="1350" y="950" />
            </Array>
          </mxGeometry>
        </mxCell>
        <mxCell id="jk9RJbKhzx2J6C2vbVzu-227" style="edgeStyle=orthogonalEdgeStyle;rounded=0;orthogonalLoop=1;jettySize=auto;html=1;exitX=0.5;exitY=1;exitDx=0;exitDy=0;entryX=0.5;entryY=0;entryDx=0;entryDy=0;" parent="1" source="jk9RJbKhzx2J6C2vbVzu-211" target="jk9RJbKhzx2J6C2vbVzu-214" edge="1">
          <mxGeometry relative="1" as="geometry" />
        </mxCell>
        <mxCell id="jk9RJbKhzx2J6C2vbVzu-228" style="edgeStyle=orthogonalEdgeStyle;rounded=0;orthogonalLoop=1;jettySize=auto;html=1;exitX=0.5;exitY=1;exitDx=0;exitDy=0;" parent="1" source="jk9RJbKhzx2J6C2vbVzu-211" target="jk9RJbKhzx2J6C2vbVzu-216" edge="1">
          <mxGeometry relative="1" as="geometry">
            <Array as="points">
              <mxPoint x="1490" y="950" />
              <mxPoint x="1630" y="950" />
            </Array>
          </mxGeometry>
        </mxCell>
        <mxCell id="jk9RJbKhzx2J6C2vbVzu-211" value="SellectPoint" style="whiteSpace=wrap;html=1;" parent="1" vertex="1">
          <mxGeometry x="1430" y="880" width="120" height="60" as="geometry" />
        </mxCell>
        <mxCell id="jk9RJbKhzx2J6C2vbVzu-219" style="edgeStyle=orthogonalEdgeStyle;rounded=0;orthogonalLoop=1;jettySize=auto;html=1;exitX=0.5;exitY=1;exitDx=0;exitDy=0;entryX=1;entryY=0.5;entryDx=0;entryDy=0;" parent="1" source="jk9RJbKhzx2J6C2vbVzu-212" target="jk9RJbKhzx2J6C2vbVzu-211" edge="1">
          <mxGeometry relative="1" as="geometry" />
        </mxCell>
        <mxCell id="jk9RJbKhzx2J6C2vbVzu-212" value="CanUseSkillRange" style="whiteSpace=wrap;html=1;" parent="1" vertex="1">
          <mxGeometry x="1570" y="800" width="120" height="60" as="geometry" />
        </mxCell>
        <mxCell id="jk9RJbKhzx2J6C2vbVzu-213" value="Move" style="whiteSpace=wrap;html=1;" parent="1" vertex="1">
          <mxGeometry x="1290" y="960" width="120" height="60" as="geometry" />
        </mxCell>
        <mxCell id="jk9RJbKhzx2J6C2vbVzu-214" value="Attack" style="whiteSpace=wrap;html=1;" parent="1" vertex="1">
          <mxGeometry x="1430" y="960" width="120" height="60" as="geometry" />
        </mxCell>
        <mxCell id="jk9RJbKhzx2J6C2vbVzu-216" value="Skill" style="whiteSpace=wrap;html=1;" parent="1" vertex="1">
          <mxGeometry x="1570" y="960" width="120" height="60" as="geometry" />
        </mxCell>
        <mxCell id="jk9RJbKhzx2J6C2vbVzu-229" value="Can---Range" style="whiteSpace=wrap;html=1;" parent="1" vertex="1">
          <mxGeometry x="1730" y="620" width="120" height="60" as="geometry" />
        </mxCell>
        <mxCell id="jk9RJbKhzx2J6C2vbVzu-230" value="public bool Can---Range" style="whiteSpace=wrap;html=1;" parent="1" vertex="1">
          <mxGeometry x="1760" y="690" width="160" height="60" as="geometry" />
        </mxCell>
        <mxCell id="jk9RJbKhzx2J6C2vbVzu-232" value="private LayerMask _filedMask" style="whiteSpace=wrap;html=1;" parent="1" vertex="1">
          <mxGeometry x="1780" y="770" width="220" height="60" as="geometry" />
        </mxCell>
        <mxCell id="jk9RJbKhzx2J6C2vbVzu-233" value="Filed" style="whiteSpace=wrap;html=1;" parent="1" vertex="1">
          <mxGeometry x="1990" y="600" width="120" height="60" as="geometry" />
        </mxCell>
        <mxCell id="jk9RJbKhzx2J6C2vbVzu-234" value="public bool isFill" style="whiteSpace=wrap;html=1;" parent="1" vertex="1">
          <mxGeometry x="2040" y="670" width="120" height="60" as="geometry" />
        </mxCell>
        <mxCell id="jk9RJbKhzx2J6C2vbVzu-235" value="if (isFill == false)" style="whiteSpace=wrap;html=1;" parent="1" vertex="1">
          <mxGeometry x="1850" y="840" width="120" height="60" as="geometry" />
        </mxCell>
        <mxCell id="jk9RJbKhzx2J6C2vbVzu-236" value="Can---Range == true" style="whiteSpace=wrap;html=1;" parent="1" vertex="1">
          <mxGeometry x="1870" y="910" width="120" height="60" as="geometry" />
        </mxCell>
        <mxCell id="jk9RJbKhzx2J6C2vbVzu-237" value="Piece" style="whiteSpace=wrap;html=1;" parent="1" vertex="1">
          <mxGeometry x="2240" y="630" width="120" height="60" as="geometry" />
        </mxCell>
        <mxCell id="jk9RJbKhzx2J6C2vbVzu-238" value="float Range" style="whiteSpace=wrap;html=1;" parent="1" vertex="1">
          <mxGeometry x="2280" y="710" width="120" height="60" as="geometry" />
        </mxCell>
        <mxCell id="jk9RJbKhzx2J6C2vbVzu-242" value="" style="rounded=0;whiteSpace=wrap;html=1;" parent="1" vertex="1">
          <mxGeometry x="921" y="921" width="200" height="280" as="geometry" />
        </mxCell>
        <mxCell id="Mm0ARtOpIyhq3Lsx1iiA-1" value="float Atttack" style="whiteSpace=wrap;html=1;" parent="1" vertex="1">
          <mxGeometry x="2280" y="790" width="120" height="60" as="geometry" />
        </mxCell>
        <mxCell id="Mm0ARtOpIyhq3Lsx1iiA-2" value="float HP" style="whiteSpace=wrap;html=1;" parent="1" vertex="1">
          <mxGeometry x="2280" y="870" width="120" height="60" as="geometry" />
        </mxCell>
        <mxCell id="Mm0ARtOpIyhq3Lsx1iiA-4" value="float Speed" style="whiteSpace=wrap;html=1;" parent="1" vertex="1">
          <mxGeometry x="2280" y="950" width="120" height="60" as="geometry" />
        </mxCell>
        <mxCell id="Mm0ARtOpIyhq3Lsx1iiA-5" value="PieceClass" style="whiteSpace=wrap;html=1;" parent="1" vertex="1">
          <mxGeometry x="2280" y="1030" width="120" height="60" as="geometry" />
        </mxCell>
        <mxCell id="Mm0ARtOpIyhq3Lsx1iiA-6" value="bool&amp;nbsp;Kight" style="whiteSpace=wrap;html=1;" parent="1" vertex="1">
          <mxGeometry x="2330" y="1199" width="80" height="40" as="geometry" />
        </mxCell>
        <mxCell id="Mm0ARtOpIyhq3Lsx1iiA-7" value="bool Rook" style="whiteSpace=wrap;html=1;" parent="1" vertex="1">
          <mxGeometry x="2330" y="1300" width="80" height="36" as="geometry" />
        </mxCell>
        <mxCell id="Mm0ARtOpIyhq3Lsx1iiA-8" value="bool Bishop" style="whiteSpace=wrap;html=1;" parent="1" vertex="1">
          <mxGeometry x="2330" y="1250" width="80" height="40" as="geometry" />
        </mxCell>
        <mxCell id="Mm0ARtOpIyhq3Lsx1iiA-9" value="bool Pawn" style="whiteSpace=wrap;html=1;" parent="1" vertex="1">
          <mxGeometry x="2330" y="1350" width="80" height="40" as="geometry" />
        </mxCell>
        <mxCell id="Mm0ARtOpIyhq3Lsx1iiA-10" value="bool King" style="whiteSpace=wrap;html=1;" parent="1" vertex="1">
          <mxGeometry x="2330" y="1100" width="80" height="42" as="geometry" />
        </mxCell>
        <mxCell id="Mm0ARtOpIyhq3Lsx1iiA-11" value="bool Queen" style="whiteSpace=wrap;html=1;" parent="1" vertex="1">
          <mxGeometry x="2330" y="1150" width="80" height="42" as="geometry" />
        </mxCell>
        <mxCell id="Mm0ARtOpIyhq3Lsx1iiA-13" value="Piece.State" style="whiteSpace=wrap;html=1;" parent="1" vertex="1">
          <mxGeometry x="2300" y="1430" width="120" height="60" as="geometry" />
        </mxCell>
        <mxCell id="Mm0ARtOpIyhq3Lsx1iiA-14" value="Idle" style="whiteSpace=wrap;html=1;" parent="1" vertex="1">
          <mxGeometry x="2340" y="1540" width="80" height="40" as="geometry" />
        </mxCell>
        <mxCell id="Mm0ARtOpIyhq3Lsx1iiA-15" value="Move" style="whiteSpace=wrap;html=1;" parent="1" vertex="1">
          <mxGeometry x="2340" y="1580" width="80" height="40" as="geometry" />
        </mxCell>
        <mxCell id="Mm0ARtOpIyhq3Lsx1iiA-16" value="Attack" style="whiteSpace=wrap;html=1;" parent="1" vertex="1">
          <mxGeometry x="2340" y="1620" width="80" height="40" as="geometry" />
        </mxCell>
        <mxCell id="Mm0ARtOpIyhq3Lsx1iiA-17" value="Daeth" style="whiteSpace=wrap;html=1;" parent="1" vertex="1">
          <mxGeometry x="2340" y="1740" width="80" height="40" as="geometry" />
        </mxCell>
        <mxCell id="Mm0ARtOpIyhq3Lsx1iiA-18" value="Hit" style="whiteSpace=wrap;html=1;" parent="1" vertex="1">
          <mxGeometry x="2340" y="1700" width="80" height="40" as="geometry" />
        </mxCell>
        <mxCell id="Mm0ARtOpIyhq3Lsx1iiA-20" value="Summon" style="whiteSpace=wrap;html=1;" parent="1" vertex="1">
          <mxGeometry x="2340" y="1500" width="80" height="40" as="geometry" />
        </mxCell>
        <mxCell id="Mm0ARtOpIyhq3Lsx1iiA-22" value="Skill" style="whiteSpace=wrap;html=1;" parent="1" vertex="1">
          <mxGeometry x="2340" y="1660" width="80" height="40" as="geometry" />
        </mxCell>
        <mxCell id="Mm0ARtOpIyhq3Lsx1iiA-73" value="" style="shape=table;startSize=0;container=1;collapsible=0;childLayout=tableLayout;" parent="1" vertex="1">
          <mxGeometry x="2010" y="1100" width="300" height="200" as="geometry" />
        </mxCell>
        <mxCell id="Mm0ARtOpIyhq3Lsx1iiA-74" value="" style="shape=tableRow;horizontal=0;startSize=0;swimlaneHead=0;swimlaneBody=0;strokeColor=inherit;top=0;left=0;bottom=0;right=0;collapsible=0;dropTarget=0;fillColor=none;points=[[0,0.5],[1,0.5]];portConstraint=eastwest;" parent="Mm0ARtOpIyhq3Lsx1iiA-73" vertex="1">
          <mxGeometry width="300" height="40" as="geometry" />
        </mxCell>
        <mxCell id="Mm0ARtOpIyhq3Lsx1iiA-75" value="Class" style="shape=partialRectangle;html=1;whiteSpace=wrap;connectable=0;strokeColor=inherit;overflow=hidden;fillColor=none;top=0;left=0;bottom=0;right=0;pointerEvents=1;" parent="Mm0ARtOpIyhq3Lsx1iiA-74" vertex="1">
          <mxGeometry width="60" height="40" as="geometry">
            <mxRectangle width="60" height="40" as="alternateBounds" />
          </mxGeometry>
        </mxCell>
        <mxCell id="Mm0ARtOpIyhq3Lsx1iiA-76" value="Rook" style="shape=partialRectangle;html=1;whiteSpace=wrap;connectable=0;strokeColor=inherit;overflow=hidden;fillColor=none;top=0;left=0;bottom=0;right=0;pointerEvents=1;" parent="Mm0ARtOpIyhq3Lsx1iiA-74" vertex="1">
          <mxGeometry x="60" width="60" height="40" as="geometry">
            <mxRectangle width="60" height="40" as="alternateBounds" />
          </mxGeometry>
        </mxCell>
        <mxCell id="Mm0ARtOpIyhq3Lsx1iiA-77" value="Bishop" style="shape=partialRectangle;html=1;whiteSpace=wrap;connectable=0;strokeColor=inherit;overflow=hidden;fillColor=none;top=0;left=0;bottom=0;right=0;pointerEvents=1;" parent="Mm0ARtOpIyhq3Lsx1iiA-74" vertex="1">
          <mxGeometry x="120" width="60" height="40" as="geometry">
            <mxRectangle width="60" height="40" as="alternateBounds" />
          </mxGeometry>
        </mxCell>
        <mxCell id="Mm0ARtOpIyhq3Lsx1iiA-78" value="Knight" style="shape=partialRectangle;html=1;whiteSpace=wrap;connectable=0;strokeColor=inherit;overflow=hidden;fillColor=none;top=0;left=0;bottom=0;right=0;pointerEvents=1;" parent="Mm0ARtOpIyhq3Lsx1iiA-74" vertex="1">
          <mxGeometry x="180" width="60" height="40" as="geometry">
            <mxRectangle width="60" height="40" as="alternateBounds" />
          </mxGeometry>
        </mxCell>
        <mxCell id="Mm0ARtOpIyhq3Lsx1iiA-79" value="Queen" style="shape=partialRectangle;html=1;whiteSpace=wrap;connectable=0;strokeColor=inherit;overflow=hidden;fillColor=none;top=0;left=0;bottom=0;right=0;pointerEvents=1;" parent="Mm0ARtOpIyhq3Lsx1iiA-74" vertex="1">
          <mxGeometry x="240" width="60" height="40" as="geometry">
            <mxRectangle width="60" height="40" as="alternateBounds" />
          </mxGeometry>
        </mxCell>
        <mxCell id="Mm0ARtOpIyhq3Lsx1iiA-80" value="" style="shape=tableRow;horizontal=0;startSize=0;swimlaneHead=0;swimlaneBody=0;strokeColor=inherit;top=0;left=0;bottom=0;right=0;collapsible=0;dropTarget=0;fillColor=none;points=[[0,0.5],[1,0.5]];portConstraint=eastwest;" parent="Mm0ARtOpIyhq3Lsx1iiA-73" vertex="1">
          <mxGeometry y="40" width="300" height="40" as="geometry" />
        </mxCell>
        <mxCell id="Mm0ARtOpIyhq3Lsx1iiA-81" value="Rook" style="shape=partialRectangle;html=1;whiteSpace=wrap;connectable=0;strokeColor=inherit;overflow=hidden;fillColor=none;top=0;left=0;bottom=0;right=0;pointerEvents=1;" parent="Mm0ARtOpIyhq3Lsx1iiA-80" vertex="1">
          <mxGeometry width="60" height="40" as="geometry">
            <mxRectangle width="60" height="40" as="alternateBounds" />
          </mxGeometry>
        </mxCell>
        <mxCell id="Mm0ARtOpIyhq3Lsx1iiA-82" value="O" style="shape=partialRectangle;html=1;whiteSpace=wrap;connectable=0;strokeColor=inherit;overflow=hidden;fillColor=none;top=0;left=0;bottom=0;right=0;pointerEvents=1;" parent="Mm0ARtOpIyhq3Lsx1iiA-80" vertex="1">
          <mxGeometry x="60" width="60" height="40" as="geometry">
            <mxRectangle width="60" height="40" as="alternateBounds" />
          </mxGeometry>
        </mxCell>
        <mxCell id="Mm0ARtOpIyhq3Lsx1iiA-83" value="O" style="shape=partialRectangle;html=1;whiteSpace=wrap;connectable=0;strokeColor=inherit;overflow=hidden;fillColor=none;top=0;left=0;bottom=0;right=0;pointerEvents=1;" parent="Mm0ARtOpIyhq3Lsx1iiA-80" vertex="1">
          <mxGeometry x="120" width="60" height="40" as="geometry">
            <mxRectangle width="60" height="40" as="alternateBounds" />
          </mxGeometry>
        </mxCell>
        <mxCell id="Mm0ARtOpIyhq3Lsx1iiA-84" value="O" style="shape=partialRectangle;html=1;whiteSpace=wrap;connectable=0;strokeColor=inherit;overflow=hidden;fillColor=none;top=0;left=0;bottom=0;right=0;pointerEvents=1;" parent="Mm0ARtOpIyhq3Lsx1iiA-80" vertex="1">
          <mxGeometry x="180" width="60" height="40" as="geometry">
            <mxRectangle width="60" height="40" as="alternateBounds" />
          </mxGeometry>
        </mxCell>
        <mxCell id="Mm0ARtOpIyhq3Lsx1iiA-85" value="O" style="shape=partialRectangle;html=1;whiteSpace=wrap;connectable=0;strokeColor=inherit;overflow=hidden;fillColor=none;top=0;left=0;bottom=0;right=0;pointerEvents=1;" parent="Mm0ARtOpIyhq3Lsx1iiA-80" vertex="1">
          <mxGeometry x="240" width="60" height="40" as="geometry">
            <mxRectangle width="60" height="40" as="alternateBounds" />
          </mxGeometry>
        </mxCell>
        <mxCell id="Mm0ARtOpIyhq3Lsx1iiA-86" value="" style="shape=tableRow;horizontal=0;startSize=0;swimlaneHead=0;swimlaneBody=0;strokeColor=inherit;top=0;left=0;bottom=0;right=0;collapsible=0;dropTarget=0;fillColor=none;points=[[0,0.5],[1,0.5]];portConstraint=eastwest;" parent="Mm0ARtOpIyhq3Lsx1iiA-73" vertex="1">
          <mxGeometry y="80" width="300" height="40" as="geometry" />
        </mxCell>
        <mxCell id="Mm0ARtOpIyhq3Lsx1iiA-87" value="Bishop" style="shape=partialRectangle;html=1;whiteSpace=wrap;connectable=0;strokeColor=inherit;overflow=hidden;fillColor=none;top=0;left=0;bottom=0;right=0;pointerEvents=1;" parent="Mm0ARtOpIyhq3Lsx1iiA-86" vertex="1">
          <mxGeometry width="60" height="40" as="geometry">
            <mxRectangle width="60" height="40" as="alternateBounds" />
          </mxGeometry>
        </mxCell>
        <mxCell id="Mm0ARtOpIyhq3Lsx1iiA-88" value="X" style="shape=partialRectangle;html=1;whiteSpace=wrap;connectable=0;strokeColor=inherit;overflow=hidden;fillColor=none;top=0;left=0;bottom=0;right=0;pointerEvents=1;" parent="Mm0ARtOpIyhq3Lsx1iiA-86" vertex="1">
          <mxGeometry x="60" width="60" height="40" as="geometry">
            <mxRectangle width="60" height="40" as="alternateBounds" />
          </mxGeometry>
        </mxCell>
        <mxCell id="Mm0ARtOpIyhq3Lsx1iiA-89" value="O" style="shape=partialRectangle;html=1;whiteSpace=wrap;connectable=0;strokeColor=inherit;overflow=hidden;fillColor=none;top=0;left=0;bottom=0;right=0;pointerEvents=1;" parent="Mm0ARtOpIyhq3Lsx1iiA-86" vertex="1">
          <mxGeometry x="120" width="60" height="40" as="geometry">
            <mxRectangle width="60" height="40" as="alternateBounds" />
          </mxGeometry>
        </mxCell>
        <mxCell id="Mm0ARtOpIyhq3Lsx1iiA-90" value="O" style="shape=partialRectangle;html=1;whiteSpace=wrap;connectable=0;strokeColor=inherit;overflow=hidden;fillColor=none;top=0;left=0;bottom=0;right=0;pointerEvents=1;" parent="Mm0ARtOpIyhq3Lsx1iiA-86" vertex="1">
          <mxGeometry x="180" width="60" height="40" as="geometry">
            <mxRectangle width="60" height="40" as="alternateBounds" />
          </mxGeometry>
        </mxCell>
        <mxCell id="Mm0ARtOpIyhq3Lsx1iiA-91" value="O" style="shape=partialRectangle;html=1;whiteSpace=wrap;connectable=0;strokeColor=inherit;overflow=hidden;fillColor=none;top=0;left=0;bottom=0;right=0;pointerEvents=1;" parent="Mm0ARtOpIyhq3Lsx1iiA-86" vertex="1">
          <mxGeometry x="240" width="60" height="40" as="geometry">
            <mxRectangle width="60" height="40" as="alternateBounds" />
          </mxGeometry>
        </mxCell>
        <mxCell id="Mm0ARtOpIyhq3Lsx1iiA-92" value="" style="shape=tableRow;horizontal=0;startSize=0;swimlaneHead=0;swimlaneBody=0;strokeColor=inherit;top=0;left=0;bottom=0;right=0;collapsible=0;dropTarget=0;fillColor=none;points=[[0,0.5],[1,0.5]];portConstraint=eastwest;" parent="Mm0ARtOpIyhq3Lsx1iiA-73" vertex="1">
          <mxGeometry y="120" width="300" height="40" as="geometry" />
        </mxCell>
        <mxCell id="Mm0ARtOpIyhq3Lsx1iiA-93" value="Knight" style="shape=partialRectangle;html=1;whiteSpace=wrap;connectable=0;strokeColor=inherit;overflow=hidden;fillColor=none;top=0;left=0;bottom=0;right=0;pointerEvents=1;" parent="Mm0ARtOpIyhq3Lsx1iiA-92" vertex="1">
          <mxGeometry width="60" height="40" as="geometry">
            <mxRectangle width="60" height="40" as="alternateBounds" />
          </mxGeometry>
        </mxCell>
        <mxCell id="Mm0ARtOpIyhq3Lsx1iiA-94" value="&lt;span style=&quot;color: rgb(0, 0, 0); font-family: Helvetica; font-size: 12px; font-style: normal; font-variant-ligatures: normal; font-variant-caps: normal; font-weight: 400; letter-spacing: normal; orphans: 2; text-align: center; text-indent: 0px; text-transform: none; widows: 2; word-spacing: 0px; -webkit-text-stroke-width: 0px; background-color: rgb(251, 251, 251); text-decoration-thickness: initial; text-decoration-style: initial; text-decoration-color: initial; float: none; display: inline !important;&quot;&gt;X&lt;/span&gt;" style="shape=partialRectangle;html=1;whiteSpace=wrap;connectable=0;strokeColor=inherit;overflow=hidden;fillColor=none;top=0;left=0;bottom=0;right=0;pointerEvents=1;" parent="Mm0ARtOpIyhq3Lsx1iiA-92" vertex="1">
          <mxGeometry x="60" width="60" height="40" as="geometry">
            <mxRectangle width="60" height="40" as="alternateBounds" />
          </mxGeometry>
        </mxCell>
        <mxCell id="Mm0ARtOpIyhq3Lsx1iiA-95" value="&lt;span style=&quot;color: rgb(0, 0, 0); font-family: Helvetica; font-size: 12px; font-style: normal; font-variant-ligatures: normal; font-variant-caps: normal; font-weight: 400; letter-spacing: normal; orphans: 2; text-align: center; text-indent: 0px; text-transform: none; widows: 2; word-spacing: 0px; -webkit-text-stroke-width: 0px; background-color: rgb(251, 251, 251); text-decoration-thickness: initial; text-decoration-style: initial; text-decoration-color: initial; float: none; display: inline !important;&quot;&gt;X&lt;/span&gt;" style="shape=partialRectangle;html=1;whiteSpace=wrap;connectable=0;strokeColor=inherit;overflow=hidden;fillColor=none;top=0;left=0;bottom=0;right=0;pointerEvents=1;" parent="Mm0ARtOpIyhq3Lsx1iiA-92" vertex="1">
          <mxGeometry x="120" width="60" height="40" as="geometry">
            <mxRectangle width="60" height="40" as="alternateBounds" />
          </mxGeometry>
        </mxCell>
        <mxCell id="Mm0ARtOpIyhq3Lsx1iiA-96" value="O" style="shape=partialRectangle;html=1;whiteSpace=wrap;connectable=0;strokeColor=inherit;overflow=hidden;fillColor=none;top=0;left=0;bottom=0;right=0;pointerEvents=1;" parent="Mm0ARtOpIyhq3Lsx1iiA-92" vertex="1">
          <mxGeometry x="180" width="60" height="40" as="geometry">
            <mxRectangle width="60" height="40" as="alternateBounds" />
          </mxGeometry>
        </mxCell>
        <mxCell id="Mm0ARtOpIyhq3Lsx1iiA-97" value="O" style="shape=partialRectangle;html=1;whiteSpace=wrap;connectable=0;strokeColor=inherit;overflow=hidden;fillColor=none;top=0;left=0;bottom=0;right=0;pointerEvents=1;" parent="Mm0ARtOpIyhq3Lsx1iiA-92" vertex="1">
          <mxGeometry x="240" width="60" height="40" as="geometry">
            <mxRectangle width="60" height="40" as="alternateBounds" />
          </mxGeometry>
        </mxCell>
        <mxCell id="Mm0ARtOpIyhq3Lsx1iiA-98" value="" style="shape=tableRow;horizontal=0;startSize=0;swimlaneHead=0;swimlaneBody=0;strokeColor=inherit;top=0;left=0;bottom=0;right=0;collapsible=0;dropTarget=0;fillColor=none;points=[[0,0.5],[1,0.5]];portConstraint=eastwest;" parent="Mm0ARtOpIyhq3Lsx1iiA-73" vertex="1">
          <mxGeometry y="160" width="300" height="40" as="geometry" />
        </mxCell>
        <mxCell id="Mm0ARtOpIyhq3Lsx1iiA-99" value="Queen" style="shape=partialRectangle;html=1;whiteSpace=wrap;connectable=0;strokeColor=inherit;overflow=hidden;fillColor=none;top=0;left=0;bottom=0;right=0;pointerEvents=1;" parent="Mm0ARtOpIyhq3Lsx1iiA-98" vertex="1">
          <mxGeometry width="60" height="40" as="geometry">
            <mxRectangle width="60" height="40" as="alternateBounds" />
          </mxGeometry>
        </mxCell>
        <mxCell id="Mm0ARtOpIyhq3Lsx1iiA-100" value="&lt;span style=&quot;color: rgb(0, 0, 0); font-family: Helvetica; font-size: 12px; font-style: normal; font-variant-ligatures: normal; font-variant-caps: normal; font-weight: 400; letter-spacing: normal; orphans: 2; text-align: center; text-indent: 0px; text-transform: none; widows: 2; word-spacing: 0px; -webkit-text-stroke-width: 0px; background-color: rgb(251, 251, 251); text-decoration-thickness: initial; text-decoration-style: initial; text-decoration-color: initial; float: none; display: inline !important;&quot;&gt;X&lt;/span&gt;" style="shape=partialRectangle;html=1;whiteSpace=wrap;connectable=0;strokeColor=inherit;overflow=hidden;fillColor=none;top=0;left=0;bottom=0;right=0;pointerEvents=1;" parent="Mm0ARtOpIyhq3Lsx1iiA-98" vertex="1">
          <mxGeometry x="60" width="60" height="40" as="geometry">
            <mxRectangle width="60" height="40" as="alternateBounds" />
          </mxGeometry>
        </mxCell>
        <mxCell id="Mm0ARtOpIyhq3Lsx1iiA-101" value="&lt;span style=&quot;color: rgb(0, 0, 0); font-family: Helvetica; font-size: 12px; font-style: normal; font-variant-ligatures: normal; font-variant-caps: normal; font-weight: 400; letter-spacing: normal; orphans: 2; text-align: center; text-indent: 0px; text-transform: none; widows: 2; word-spacing: 0px; -webkit-text-stroke-width: 0px; background-color: rgb(251, 251, 251); text-decoration-thickness: initial; text-decoration-style: initial; text-decoration-color: initial; float: none; display: inline !important;&quot;&gt;X&lt;/span&gt;" style="shape=partialRectangle;html=1;whiteSpace=wrap;connectable=0;strokeColor=inherit;overflow=hidden;fillColor=none;top=0;left=0;bottom=0;right=0;pointerEvents=1;" parent="Mm0ARtOpIyhq3Lsx1iiA-98" vertex="1">
          <mxGeometry x="120" width="60" height="40" as="geometry">
            <mxRectangle width="60" height="40" as="alternateBounds" />
          </mxGeometry>
        </mxCell>
        <mxCell id="Mm0ARtOpIyhq3Lsx1iiA-102" value="&lt;span style=&quot;color: rgb(0, 0, 0); font-family: Helvetica; font-size: 12px; font-style: normal; font-variant-ligatures: normal; font-variant-caps: normal; font-weight: 400; letter-spacing: normal; orphans: 2; text-align: center; text-indent: 0px; text-transform: none; widows: 2; word-spacing: 0px; -webkit-text-stroke-width: 0px; background-color: rgb(251, 251, 251); text-decoration-thickness: initial; text-decoration-style: initial; text-decoration-color: initial; float: none; display: inline !important;&quot;&gt;X&lt;/span&gt;" style="shape=partialRectangle;html=1;whiteSpace=wrap;connectable=0;strokeColor=inherit;overflow=hidden;fillColor=none;top=0;left=0;bottom=0;right=0;pointerEvents=1;" parent="Mm0ARtOpIyhq3Lsx1iiA-98" vertex="1">
          <mxGeometry x="180" width="60" height="40" as="geometry">
            <mxRectangle width="60" height="40" as="alternateBounds" />
          </mxGeometry>
        </mxCell>
        <mxCell id="Mm0ARtOpIyhq3Lsx1iiA-103" value="X" style="shape=partialRectangle;html=1;whiteSpace=wrap;connectable=0;strokeColor=inherit;overflow=hidden;fillColor=none;top=0;left=0;bottom=0;right=0;pointerEvents=1;" parent="Mm0ARtOpIyhq3Lsx1iiA-98" vertex="1">
          <mxGeometry x="240" width="60" height="40" as="geometry">
            <mxRectangle width="60" height="40" as="alternateBounds" />
          </mxGeometry>
        </mxCell>
        <mxCell id="Mm0ARtOpIyhq3Lsx1iiA-104" value="Raycast.Phsic." style="whiteSpace=wrap;html=1;" parent="1" vertex="1">
          <mxGeometry x="2040" y="740" width="120" height="60" as="geometry" />
        </mxCell>
        <mxCell id="Mm0ARtOpIyhq3Lsx1iiA-106" value="Grave&lt;br&gt;&lt;br&gt;Space" style="rounded=0;whiteSpace=wrap;html=1;rotation=-180;" parent="1" vertex="1">
          <mxGeometry x="15" y="870" width="50" height="80" as="geometry" />
        </mxCell>
        <mxCell id="Mm0ARtOpIyhq3Lsx1iiA-107" value="Main&lt;br&gt;&lt;br&gt;Deck&lt;br&gt;&lt;br&gt;Space" style="rounded=0;whiteSpace=wrap;html=1;rotation=-180;" parent="1" vertex="1">
          <mxGeometry x="15" y="790" width="50" height="80" as="geometry" />
        </mxCell>
        <mxCell id="Mm0ARtOpIyhq3Lsx1iiA-108" value="Skill&lt;br&gt;&lt;br&gt;Card&lt;br&gt;&lt;br&gt;Space" style="rounded=0;whiteSpace=wrap;html=1;rotation=-180;" parent="1" vertex="1">
          <mxGeometry x="335" y="870" width="50" height="80" as="geometry" />
        </mxCell>
        <mxCell id="2STAtWdD-6BN4LUwrreX-6" value="Piece card?" style="text;html=1;align=center;verticalAlign=middle;resizable=0;points=[];autosize=1;strokeColor=none;fillColor=none;" parent="1" vertex="1">
          <mxGeometry x="1280" y="195" width="90" height="30" as="geometry" />
        </mxCell>
        <mxCell id="2STAtWdD-6BN4LUwrreX-7" value="Yes" style="text;html=1;align=center;verticalAlign=middle;resizable=0;points=[];autosize=1;strokeColor=none;fillColor=none;" parent="1" vertex="1">
          <mxGeometry x="1140" y="245" width="40" height="30" as="geometry" />
        </mxCell>
        <mxCell id="2STAtWdD-6BN4LUwrreX-8" value="No" style="text;html=1;align=center;verticalAlign=middle;resizable=0;points=[];autosize=1;strokeColor=none;fillColor=none;" parent="1" vertex="1">
          <mxGeometry x="1380" y="245" width="40" height="30" as="geometry" />
        </mxCell>
        <mxCell id="2STAtWdD-6BN4LUwrreX-9" value="Yes" style="text;html=1;align=center;verticalAlign=middle;resizable=0;points=[];autosize=1;strokeColor=none;fillColor=none;" parent="1" vertex="1">
          <mxGeometry x="1060" y="385" width="40" height="30" as="geometry" />
        </mxCell>
        <mxCell id="2STAtWdD-6BN4LUwrreX-10" value="No" style="text;html=1;align=center;verticalAlign=middle;resizable=0;points=[];autosize=1;strokeColor=none;fillColor=none;" parent="1" vertex="1">
          <mxGeometry x="1301" y="385" width="40" height="30" as="geometry" />
        </mxCell>
        <mxCell id="2STAtWdD-6BN4LUwrreX-11" value="Promotion card?" style="text;html=1;align=center;verticalAlign=middle;resizable=0;points=[];autosize=1;strokeColor=none;fillColor=none;" parent="1" vertex="1">
          <mxGeometry x="1190" y="335" width="110" height="30" as="geometry" />
        </mxCell>
        <mxCell id="2STAtWdD-6BN4LUwrreX-14" value="Promotion&lt;br&gt;Piece" style="whiteSpace=wrap;html=1;" parent="1" vertex="1">
          <mxGeometry x="1040" y="555" width="120" height="60" as="geometry" />
        </mxCell>
        <mxCell id="2STAtWdD-6BN4LUwrreX-17" value="Limit ok?" style="text;html=1;align=center;verticalAlign=middle;resizable=0;points=[];autosize=1;strokeColor=none;fillColor=none;" parent="1" vertex="1">
          <mxGeometry x="1050" y="475" width="70" height="30" as="geometry" />
        </mxCell>
        <mxCell id="2STAtWdD-6BN4LUwrreX-18" value="Yes" style="text;html=1;align=center;verticalAlign=middle;resizable=0;points=[];autosize=1;strokeColor=none;fillColor=none;" parent="1" vertex="1">
          <mxGeometry x="1121" y="530" width="40" height="30" as="geometry" />
        </mxCell>
        <mxCell id="2STAtWdD-6BN4LUwrreX-20" value="Player Idle" style="whiteSpace=wrap;html=1;" parent="1" vertex="1">
          <mxGeometry x="1221" y="20" width="120" height="60" as="geometry" />
        </mxCell>
        <mxCell id="2STAtWdD-6BN4LUwrreX-22" value="No" style="text;html=1;align=center;verticalAlign=middle;resizable=0;points=[];autosize=1;strokeColor=none;fillColor=none;" parent="1" vertex="1">
          <mxGeometry x="1040" y="50" width="40" height="30" as="geometry" />
        </mxCell>
        <mxCell id="2STAtWdD-6BN4LUwrreX-24" value="Use Item" style="whiteSpace=wrap;html=1;" parent="1" vertex="1">
          <mxGeometry x="1400" y="415" width="120" height="60" as="geometry" />
        </mxCell>
        <mxCell id="2STAtWdD-6BN4LUwrreX-27" value="CanUse?" style="text;html=1;align=center;verticalAlign=middle;resizable=0;points=[];autosize=1;strokeColor=none;fillColor=none;" parent="1" vertex="1">
          <mxGeometry x="1380" y="345" width="70" height="30" as="geometry" />
        </mxCell>
        <mxCell id="2STAtWdD-6BN4LUwrreX-28" value="Yes" style="text;html=1;align=center;verticalAlign=middle;resizable=0;points=[];autosize=1;strokeColor=none;fillColor=none;" parent="1" vertex="1">
          <mxGeometry x="1460" y="385" width="40" height="30" as="geometry" />
        </mxCell>
        <mxCell id="QxsnMme4ErrsoJoP5w_W-1" value="Attack" style="whiteSpace=wrap;html=1;" parent="1" vertex="1">
          <mxGeometry x="640" y="1141" width="40" height="20" as="geometry" />
        </mxCell>
        <mxCell id="QxsnMme4ErrsoJoP5w_W-2" value="Range" style="whiteSpace=wrap;html=1;" parent="1" vertex="1">
          <mxGeometry x="640" y="1161" width="40" height="20" as="geometry" />
        </mxCell>
        <mxCell id="QxsnMme4ErrsoJoP5w_W-3" value="HP" style="whiteSpace=wrap;html=1;" parent="1" vertex="1">
          <mxGeometry x="640" y="1121" width="40" height="20" as="geometry" />
        </mxCell>
        <mxCell id="QxsnMme4ErrsoJoP5w_W-4" value="Speed" style="whiteSpace=wrap;html=1;" parent="1" vertex="1">
          <mxGeometry x="640" y="1181" width="40" height="20" as="geometry" />
        </mxCell>
        <mxCell id="QxsnMme4ErrsoJoP5w_W-5" value="Class" style="rounded=0;whiteSpace=wrap;html=1;" parent="1" vertex="1">
          <mxGeometry x="1060" y="921.5" width="61" height="29" as="geometry" />
        </mxCell>
        <mxCell id="QxsnMme4ErrsoJoP5w_W-6" value="Name" style="rounded=0;whiteSpace=wrap;html=1;" parent="1" vertex="1">
          <mxGeometry x="700" y="921.5" width="140" height="20" as="geometry" />
        </mxCell>
        <mxCell id="QxsnMme4ErrsoJoP5w_W-7" value="Name" style="rounded=0;whiteSpace=wrap;html=1;" parent="1" vertex="1">
          <mxGeometry x="921" y="921.5" width="139" height="20" as="geometry" />
        </mxCell>
        <mxCell id="8hvPQt4pKzFjzbPoYoWv-1" value="Condition /&amp;nbsp; Cost" style="rounded=0;whiteSpace=wrap;html=1;" parent="1" vertex="1">
          <mxGeometry x="700" y="1122" width="200" height="20" as="geometry" />
        </mxCell>
        <mxCell id="8hvPQt4pKzFjzbPoYoWv-2" value="Effect" style="rounded=0;whiteSpace=wrap;html=1;" parent="1" vertex="1">
          <mxGeometry x="700" y="1140" width="200" height="61" as="geometry" />
        </mxCell>
        <mxCell id="8hvPQt4pKzFjzbPoYoWv-3" value="Condition /&amp;nbsp; Cost" style="rounded=0;whiteSpace=wrap;html=1;" parent="1" vertex="1">
          <mxGeometry x="920" y="1123" width="200" height="20" as="geometry" />
        </mxCell>
        <mxCell id="8hvPQt4pKzFjzbPoYoWv-4" value="Effect" style="rounded=0;whiteSpace=wrap;html=1;" parent="1" vertex="1">
          <mxGeometry x="921" y="1140" width="200" height="61" as="geometry" />
        </mxCell>
      </root>
    </mxGraphModel>
  </diagram>
</mxfile>
